<svg width="58" height="71" viewBox="0 0 58 71" fill="none" xmlns="http://www.w3.org/2000/svg">
<path d="M24.6055 0.636719C24.3418 0.900391 24.3125 1.12012 24.3125 3.34668V5.76367L21.9688 10.4512L19.625 15.1387V26.4912V37.8291L13.5898 37.873L7.54004 37.917L6.73438 38.3125C5.38672 38.9717 4.84473 39.5869 2.80859 42.6338C1.19727 45.0654 0.875 45.6367 0.875 46.0908C0.875 46.8086 1.25586 47.1748 2.14941 47.292C3.35059 47.4531 4.2002 47.79 4.85938 48.376C5.5332 48.9766 6.20703 50.0752 6.35352 50.8076C6.39746 51.042 6.73438 55.2607 7.10059 60.1826C7.4668 65.0898 7.80371 69.3379 7.84766 69.6016C7.8916 69.8652 8.05273 70.2168 8.21387 70.3779C8.49219 70.6562 8.91699 70.6562 32.5156 70.6562C56.3486 70.6562 56.5391 70.6562 56.832 70.3633C57.125 70.0703 57.125 69.8799 57.125 42.6045V15.1387L54.7812 10.4512L52.4375 5.76367V3.34668C52.4375 1.12012 52.4082 0.900391 52.1445 0.636719C51.8516 0.34375 51.6611 0.34375 38.375 0.34375C25.0889 0.34375 24.8984 0.34375 24.6055 0.636719ZM50.0938 3.85938V5.03125H38.375H26.6562V3.85938V2.6875H38.375H50.0938V3.85938ZM52.1885 10.8174C53.126 12.707 53.9023 14.2891 53.9023 14.333C53.9023 14.377 46.915 14.4062 38.375 14.4062C29.835 14.4062 22.8477 14.377 22.8477 14.333C22.8477 14.2891 23.624 12.707 24.5615 10.8174L26.29 7.375H38.375H50.46L52.1885 10.8174ZM54.752 20.4414L54.708 24.1182L52.9502 24.9092C45.8604 28.0879 45.0254 28.2783 37.5693 28.4688C33.5264 28.5713 32.501 28.6445 31.2998 28.8936C29.3955 29.3184 27.5938 29.9336 25.2061 30.9883C24.1074 31.4717 22.9355 31.999 22.5986 32.1455L21.9688 32.4092V24.5869V16.75H38.375H54.7812L54.752 20.4414ZM54.6787 49.8701C54.5615 49.9873 49.625 52.1846 48.4531 52.6533L47.7646 52.917L47.7207 48.6396L47.6768 44.3623L47.252 43.4834C46.6953 42.3555 45.582 41.2422 44.4541 40.6855C43.6045 40.2754 43.5166 40.2607 40.9824 40.2168L38.375 40.1582V39.2939C38.375 38.6201 38.3018 38.3564 38.082 38.1367C37.7891 37.8438 37.5986 37.8438 29.8789 37.8438H21.9541L21.998 36.4961L22.042 35.1631L23.7998 34.3721C30.8896 31.1934 31.7246 31.0029 39.1807 30.8125C45.626 30.6514 46.7979 30.4023 52.1445 28.0293L54.708 26.8867L54.752 38.3271C54.7666 44.626 54.7373 49.8115 54.6787 49.8701ZM35.8115 40.876C35.7676 41.2715 35.2988 47.2188 34.7861 54.1035C34.2588 60.9883 33.79 67.0088 33.7461 67.4629L33.6582 68.3125H21.9688H10.2793L10.1914 67.4629C10.1475 67.0088 9.83984 63.127 9.51758 58.8643C9.19531 54.5869 8.8584 50.7344 8.77051 50.2949C8.375 48.3174 7.05664 46.5596 5.26953 45.6221C4.74219 45.3438 4.30273 45.1094 4.27344 45.0801C4.18555 45.0215 6.30957 41.8867 6.79297 41.3887C7.34961 40.7881 7.87695 40.4951 8.68262 40.334C9.01953 40.2754 15.2891 40.2168 22.5986 40.2021L35.8994 40.1875L35.8115 40.876ZM43.2822 42.9268C44.0732 43.3369 44.6592 43.9375 45.0254 44.7285C45.3184 45.3584 45.333 45.6367 45.377 52.1553L45.4209 58.9375H44.835H44.2344V52.6387C44.2344 45.6807 44.2344 45.7246 43.3115 44.7432C42.4912 43.8936 41.9053 43.7031 39.8838 43.7031C37.9209 43.7031 37.9502 43.7178 38.1846 42.8389L38.2725 42.4873L40.4844 42.5605C42.3447 42.6191 42.7842 42.6777 43.2822 42.9268ZM41.0703 46.252C41.8174 46.5596 41.8906 46.9697 41.8906 50.7344V54.0596L40.9092 54.1475C40.3525 54.2061 39.3418 54.25 38.6387 54.25H37.3496V53.6934C37.3496 53.0928 37.7305 48.0391 37.877 46.8086L37.9502 46.0469H39.2686C40.0596 46.0469 40.7773 46.1348 41.0703 46.252ZM54.7812 60.4756V68.3125H45.4795H36.1631L36.251 67.6094C36.3535 66.7012 37.0566 57.4434 37.0566 56.96V56.5938H39.4736H41.8906V58.6445C41.8906 61.4131 41.7441 61.2812 44.791 61.2812C46.5635 61.2812 47.1787 61.2373 47.3984 61.0762C47.6475 60.8857 47.6768 60.6221 47.75 58.2051L47.8232 55.5391L49.1416 55.0557C49.874 54.792 51.4121 54.1475 52.584 53.6201C53.7559 53.0928 54.7227 52.6533 54.752 52.6533C54.7666 52.6387 54.7812 56.1689 54.7812 60.4756Z" fill="#F8F7F2"/>
<path d="M19.9182 46.3398C19.7278 46.5303 19.6252 46.8232 19.6252 47.2187C19.6252 48.0977 19.9915 48.3906 21.0901 48.3906H21.969V49.5625V50.7344H16.4026C11.0266 50.7344 10.8215 50.749 10.5432 51.0273C10.1477 51.4229 10.1477 51.7158 10.7629 59.2305C11.3635 66.5986 11.3489 66.4814 11.7297 66.8623C11.9934 67.126 12.301 67.1406 21.969 67.1406C31.637 67.1406 31.9446 67.126 32.2082 66.8623C32.5891 66.4814 32.5745 66.5986 33.175 59.2305C33.7903 51.7158 33.7903 51.4229 33.3948 51.0273C33.1164 50.749 32.9114 50.7344 28.7073 50.7344H24.3127V48.6836C24.3127 45.9883 24.3713 46.0469 21.969 46.0469C20.4016 46.0469 20.1819 46.0762 19.9182 46.3398ZM21.969 54.25V55.4219H21.0901C19.9915 55.4219 19.6252 55.7148 19.6252 56.5937C19.6252 57.4727 19.9915 57.7656 21.0901 57.7656H21.969V58.9375V60.1094H21.0901C19.9915 60.1094 19.6252 60.4023 19.6252 61.2812C19.6252 62.3066 19.9182 62.4531 21.969 62.4531C24.5178 62.4531 24.3127 62.8779 24.3127 57.4727V53.0781H27.7551H31.1975L31.1243 53.6201C31.0803 53.9277 30.8899 56.2568 30.6848 58.791C30.4797 61.3252 30.2747 63.7129 30.2307 64.0937L30.1428 64.7969H21.969H13.7952L13.7073 64.1084C13.6633 63.7129 13.4582 61.3252 13.2532 58.791C13.0481 56.2568 12.8577 53.9277 12.8137 53.6201L12.7405 53.0781H17.3547H21.969V54.25Z" fill="#F8F7F2"/>
</svg>
