<svg width="68" height="73" viewBox="0 0 68 73" fill="none" xmlns="http://www.w3.org/2000/svg">
<path d="M39.6104 0.347656C39.4492 0.538086 39.0684 1.34375 38.7608 2.14941C38.4531 2.95508 38.1309 3.6875 38.043 3.77539C37.9551 3.86328 37.4278 4.08301 36.8565 4.27344C36.2998 4.44922 35.3037 4.85938 34.6592 5.16699C34.0293 5.48926 33.4287 5.73828 33.3408 5.73828C33.2676 5.73828 32.5352 5.44531 31.7442 5.0791C29.4883 4.05371 29.6787 3.98047 26.793 6.88086C24.625 9.04883 24.3321 9.38574 24.3321 9.81055C24.3321 10.0742 24.6543 10.9971 25.0352 11.8613L25.7529 13.4434L25.1963 14.542C24.8887 15.1426 24.4639 16.1533 24.2442 16.7979C24.0391 17.4424 23.7901 18.043 23.6875 18.1309C23.5996 18.2188 22.8672 18.541 22.0615 18.8486C19.7764 19.7129 19.9375 19.3613 19.9375 23.5508C19.9375 26.7148 19.9668 27.125 20.2012 27.4033C20.333 27.5645 21.1973 27.9893 22.1055 28.3408L23.7754 28.9707L24.1416 30.0693C24.3321 30.6699 24.7569 31.71 25.0791 32.3838C25.3867 33.0576 25.6504 33.6875 25.6504 33.7754C25.6504 33.8633 25.3574 34.5957 24.9912 35.4014C23.9805 37.6279 23.9365 37.4668 26.5733 40.1328C28.7266 42.3154 29.3272 42.7988 29.8399 42.7988C29.9717 42.7988 30.8213 42.4766 31.7149 42.0811L33.3555 41.3633L34.5274 41.9346C35.1572 42.2568 36.2266 42.6816 36.8858 42.9014L38.1016 43.2969L38.7754 45.0254C39.1856 46.0801 39.5664 46.8418 39.7569 46.9736C40.0205 47.1494 40.6944 47.1934 43.5362 47.1934C46.627 47.1934 47.0371 47.1641 47.3154 46.9297C47.4766 46.7979 47.9014 45.9189 48.2676 44.9961L48.9121 43.3262L50.1279 42.916C50.7871 42.6963 51.8565 42.2568 52.5156 41.9346L53.7022 41.3633L55.2988 42.0811C56.1777 42.4766 57.0713 42.7988 57.2764 42.7988C57.833 42.7988 62.711 37.9062 62.711 37.3496C62.711 37.1299 62.3887 36.2363 62.0078 35.3428L61.3047 33.7314L61.8613 32.5742C62.169 31.9297 62.6084 30.8604 62.8281 30.2012L63.2383 28.9854L64.9229 28.3408C65.8457 27.9893 66.71 27.5645 66.8418 27.4033C67.0762 27.125 67.1055 26.7148 67.1055 23.5947C67.1055 19.4053 67.2373 19.6982 64.835 18.79L63.209 18.1748L62.9453 17.252C62.8135 16.7539 62.374 15.6846 61.9932 14.8789L61.2901 13.4287L62.0078 11.832C62.3887 10.9678 62.711 10.0449 62.711 9.7959C62.711 9.40039 62.374 9.00488 60.25 6.88086C57.3643 3.98047 57.5547 4.05371 55.2988 5.0791C54.5078 5.44531 53.7754 5.73828 53.6729 5.73828C53.585 5.73828 52.9844 5.48926 52.3545 5.16699C51.7246 4.85938 50.7578 4.44922 50.1865 4.27344C49.6299 4.08301 49.0879 3.86328 48.9854 3.77539C48.8975 3.6875 48.5459 2.91113 48.2237 2.06152C47.8867 1.19727 47.4912 0.391602 47.3447 0.259766C47.125 0.0546875 46.6123 0.0253906 43.4922 0.0253906C39.9619 0.0253906 39.9033 0.0253906 39.6104 0.347656ZM46.3047 4.12695C46.6563 5.00586 47.0078 5.79688 47.0957 5.87012C47.1836 5.92871 47.916 6.19238 48.7217 6.44141C49.542 6.69043 50.919 7.26172 51.7832 7.71582C52.6475 8.15527 53.4531 8.52148 53.5557 8.52148C53.6729 8.52148 54.4639 8.21387 55.3135 7.83301L56.8662 7.15918L58.4043 8.68262L59.9424 10.2207L59.2686 11.7295C58.9024 12.5645 58.6094 13.3701 58.6094 13.5166C58.6094 13.6777 58.9463 14.4395 59.3418 15.2158C59.752 16.0068 60.3233 17.3838 60.6016 18.292C60.8945 19.1855 61.2022 19.9912 61.2901 20.0645C61.3926 20.1523 62.1543 20.4746 63.0039 20.7969L64.542 21.3828L64.586 23.5654L64.6152 25.748L63.0186 26.3633C62.1397 26.7002 61.3486 27.0664 61.2754 27.1689C61.1875 27.2715 60.8799 28.0771 60.5869 28.9561C60.3086 29.835 59.7373 31.168 59.3418 31.9297C58.9317 32.6914 58.6094 33.4531 58.6094 33.6143C58.6094 33.7607 58.917 34.5957 59.2832 35.4453L59.957 36.9834L58.4336 38.5068L56.9102 40.0303L55.416 39.3564C54.5957 38.9902 53.7754 38.6973 53.585 38.6973C53.4092 38.6973 52.4717 39.0928 51.5049 39.5762C50.5381 40.0596 49.2197 40.6016 48.5752 40.7773C47.9307 40.9531 47.2862 41.1875 47.1543 41.3047C47.0078 41.4219 46.6123 42.2422 46.2901 43.1064L45.6748 44.7031H43.5215H41.3682L40.7529 43.1064C40.416 42.2275 40.0498 41.4219 39.9473 41.334C39.8301 41.2461 39.0391 40.9531 38.1602 40.6748C37.2959 40.3818 35.9629 39.8252 35.2012 39.4297C34.4395 39.0195 33.6631 38.6973 33.4727 38.6973C33.2822 38.6973 32.4473 38.9902 31.627 39.3564L30.1328 40.0303L28.5947 38.4922L27.0713 36.9688L27.7451 35.4307C28.126 34.5957 28.4336 33.79 28.4336 33.6436C28.4336 33.4971 28.0821 32.6768 27.6426 31.8271C27.2178 30.9775 26.6465 29.6152 26.3828 28.8096C26.1338 28.0039 25.8555 27.2715 25.7676 27.1689C25.6944 27.0664 24.9033 26.7002 24.0244 26.3633L22.4278 25.748L22.4571 23.5654L22.501 21.3828L23.9512 20.8262C25.6065 20.1963 26.0166 19.8887 26.1631 19.1123C26.3096 18.2773 27.2031 16.0654 27.8477 14.8789C28.1699 14.3076 28.4336 13.707 28.4336 13.5605C28.4336 13.3994 28.126 12.5938 27.7598 11.7441L27.1006 10.2207L28.6387 8.68262L30.1621 7.15918L31.7002 7.83301C32.5352 8.21387 33.3262 8.52148 33.4434 8.52148C33.5606 8.52148 34.2783 8.18457 35.0694 7.78906C35.8457 7.37891 37.1787 6.82227 38.043 6.54395C38.8926 6.25098 39.6983 5.97266 39.8447 5.89941C39.9912 5.81152 40.3721 5.03516 40.7237 4.1416L41.3389 2.51562H43.5215H45.6895L46.3047 4.12695Z" fill="#B72A23"/>
<path d="M41.2509 8.82956C40.7675 8.9028 39.8153 9.12252 39.1269 9.34225C35.1718 10.5727 32.0077 13.2534 30.162 16.9448C29.0487 19.186 28.6532 20.9731 28.6679 23.7563C28.6825 25.5141 28.7558 26.1147 29.0634 27.2719C30.0009 30.8315 32.2274 33.9809 35.2597 36.0024C39.6542 38.9321 45.4696 39.269 50.2304 36.8813C55.7235 34.1274 59.0048 28.1215 58.331 22.0864C58.0966 20.0356 57.7157 18.688 56.8515 16.9448C54.0097 11.1733 47.7108 7.9067 41.2509 8.82956ZM45.6454 11.3784C50.4062 12.2133 54.2733 15.8315 55.5478 20.6069C55.9872 22.2915 55.9872 24.8549 55.5478 26.5102C54.0683 32.1645 49.2489 35.9292 43.5214 35.9438C37.8378 35.9585 32.9892 32.1938 31.495 26.6128C31.0849 25.0747 31.0409 22.2329 31.4218 20.8266C32.0517 18.4536 32.9892 16.7251 34.5565 15.0844C37.5302 11.979 41.4853 10.6606 45.6454 11.3784Z" fill="#B72A23"/>
<path d="M48.414 16.5048C47.8867 16.7684 46.8906 17.6913 44.708 19.9618L41.7197 23.0526L40.3867 21.7343C38.7461 20.1083 38.3359 19.8886 37.0615 19.8886C35.8896 19.8886 34.9375 20.3866 34.3223 21.2948C33.7656 22.1444 33.6777 23.7118 34.1465 24.6493C34.5273 25.411 39.3906 30.3329 40.123 30.6991C40.8701 31.08 41.9101 31.1532 42.7305 30.8749C43.375 30.6698 43.9902 30.1132 48.0918 25.9823C51.1826 22.8915 52.8086 21.163 52.9697 20.7968C53.2773 20.0497 53.248 18.702 52.9111 17.9696C52.1494 16.3143 50.1279 15.6552 48.414 16.5048ZM50.4648 18.8632C50.5967 18.9804 50.6992 19.2294 50.6992 19.4052C50.6992 19.8446 42.1152 28.6044 41.7051 28.5897C41.5293 28.5897 40.3721 27.5497 38.8779 26.0702C36.8271 24.0341 36.3437 23.4774 36.3437 23.1405C36.3437 22.7743 36.7832 22.2909 37.1201 22.2909C37.1933 22.2909 38.0869 23.1112 39.1123 24.1073C40.9873 25.9237 41.3682 26.1874 41.9541 26.0409C42.1299 25.997 43.917 24.3124 45.9385 22.2909C49.6885 18.5409 49.9521 18.3358 50.4648 18.8632Z" fill="#B72A23"/>
<path d="M21.8417 45.3916C20.5673 45.7285 18.707 46.6807 14.2978 49.2441C9.69816 51.9102 10.2402 51.7783 9.4052 50.4014C8.81926 49.4639 7.94035 49.0391 6.70988 49.127C5.90422 49.1855 5.5966 49.3174 3.94133 50.2549C1.26066 51.793 0.791914 52.3789 0.92375 53.9902C0.982343 54.6641 1.52434 55.6895 5.78703 63.2334C8.4384 67.9062 10.7675 71.9199 10.9872 72.1543C11.5146 72.7256 12.1591 72.9746 13.1405 72.9746C13.8876 72.9746 14.1513 72.8867 15.6015 72.0664C16.495 71.5684 17.5058 70.9678 17.8573 70.748C19.1904 69.8398 19.4394 68.2578 18.5165 66.5C18.2236 65.9287 18.0478 65.4453 18.121 65.3721C18.1943 65.3135 18.5458 65.0938 18.912 64.8887L19.5712 64.5225L27.1152 66.5732C34.454 68.5508 34.703 68.6094 36.1972 68.624C37.8085 68.6387 38.8925 68.4189 40.079 67.8184C41.1484 67.2617 61.1581 54.9131 61.788 54.415C62.1542 54.1221 62.5644 53.5947 62.8134 53.082C63.1796 52.3496 63.2236 52.0859 63.2236 50.8555C63.2236 49.625 63.1796 49.376 62.828 48.7314C61.8173 46.8125 60.1327 46.0361 57.6425 46.3438C55.5624 46.5928 54.7275 46.9883 46.7441 51.6465C43.4921 53.5508 40.7675 55.1035 40.6943 55.1035C40.621 55.1035 40.6064 54.9863 40.6796 54.8398C40.87 54.4004 40.9286 52.5107 40.7529 51.9834C40.4452 51.0752 39.7421 50.1523 38.9511 49.625C38.3505 49.2295 37.7792 49.0244 36.4169 48.7314C35.4501 48.5264 33.0185 47.7793 30.997 47.0908C25.4745 45.2158 25.2109 45.1426 23.8339 45.1572C23.1894 45.1572 22.2812 45.2598 21.8417 45.3916ZM28.1112 48.8047C31.3925 49.9619 34.7177 50.9727 36.4023 51.2949C37.5302 51.5293 38.2333 52.1299 38.3505 53.0088C38.453 53.8291 38.1894 54.4443 37.5595 54.8252C36.8124 55.2939 35.7284 55.1475 31.9491 54.0781C28.0527 52.9941 27.7597 52.9795 27.3202 53.8145C27.0566 54.3125 27.1591 54.957 27.54 55.3086C27.8476 55.5869 35.5966 57.6523 36.9296 57.8135C39.1855 58.0918 41.2509 57.7695 42.7157 56.9346C43.038 56.7441 45.9384 55.0596 49.1611 53.1846C52.3837 51.3096 55.5771 49.5371 56.2509 49.2734C58.3749 48.4092 59.9277 48.6143 60.5575 49.8301C60.8945 50.4746 60.8212 51.6025 60.4111 52.1445C60.0448 52.6426 39.4198 65.3721 38.2773 65.7969C36.5634 66.4561 36.1386 66.3828 27.5253 64.0684C23.2773 62.9258 19.5859 61.9883 19.3368 61.9883C19.0585 61.9883 18.4579 62.2227 17.8573 62.5742C17.2861 62.8965 16.788 63.1602 16.7441 63.1602C16.5536 63.1602 11.412 53.9023 11.5439 53.7998C12.0419 53.3457 21.1532 48.2627 21.9443 47.9844C23.6874 47.3838 24.2734 47.457 28.1112 48.8047ZM11.8954 59.9229C14.4736 64.4639 16.5536 68.2871 16.539 68.4189C16.495 68.668 13.4189 70.4697 13.038 70.4844C12.789 70.4844 3.32609 53.9023 3.41398 53.624C3.50187 53.375 6.65129 51.5879 6.95891 51.6318C7.14934 51.6465 8.55559 54.0195 11.8954 59.9229Z" fill="#B72A23"/>
<path d="M5.4208 53.7703C4.9374 54.2537 4.87881 54.7517 5.21572 55.3962C5.65518 56.2312 7.00283 56.2898 7.55947 55.4841C8.16006 54.6345 7.45694 53.3455 6.3876 53.3455C5.99209 53.3455 5.74307 53.4626 5.4208 53.7703Z" fill="#B72A23"/>
</svg>
