<svg width="24" height="24" viewBox="0 0 24 24" fill="none" xmlns="http://www.w3.org/2000/svg">
<path d="M0.9375 0.9375C0.853125 1.02187 0.84375 1.09219 0.84375 1.75781C0.84375 2.85938 0.998438 3.45 1.47188 4.1625C1.91719 4.83281 2.59688 5.34844 3.42188 5.63437L3.86719 5.78906L6.99844 5.80312L10.125 5.81719V6.84375V7.86562L7.48594 7.88437L4.85156 7.90312L4.46719 8.02969C3.74531 8.26875 3.19688 8.75156 2.85938 9.43594L2.66719 9.82031L1.75781 15.3C1.25625 18.3141 0.84375 20.8453 0.84375 20.9297C0.84375 21.2062 0.95625 21.2578 1.66875 21.2719L2.29688 21.2906V22.1437C2.29688 22.9125 2.30625 23.0109 2.38125 23.0766C2.46094 23.1516 3.19688 23.1562 12.0094 23.1562C21.1922 23.1562 21.5531 23.1516 21.6234 23.0719C21.6938 22.9969 21.7031 22.8609 21.7031 22.1344V21.2906L22.3313 21.2719C23.0484 21.2578 23.1562 21.2109 23.1562 20.925C23.1562 20.8359 22.7438 18.3047 22.2469 15.3L21.3328 9.82969L21.1406 9.43125C20.8078 8.7375 20.1797 8.2125 19.4062 7.98281C19.1859 7.91719 18.7688 7.90312 16.5375 7.88906L13.9219 7.86562V6.84375V5.81719L17.0297 5.80312L20.1328 5.78906L20.5781 5.63437C21.4031 5.34844 22.0828 4.83281 22.5281 4.1625C23.0016 3.45 23.1562 2.85938 23.1562 1.75781C23.1562 1.09219 23.1469 1.02187 23.0625 0.9375C22.9688 0.84375 22.9078 0.84375 12 0.84375C1.09219 0.84375 1.03125 0.84375 0.9375 0.9375ZM22.4438 2.11875C22.425 2.55 22.3922 2.775 22.3172 3C22.0078 3.90469 21.3047 4.61719 20.3906 4.94062L19.9922 5.08594H12H4.00781L3.60938 4.94062C2.69531 4.61719 1.99219 3.90469 1.68281 3C1.60781 2.775 1.575 2.55 1.55625 2.11875L1.5375 1.54688H12H22.4625L22.4438 2.11875ZM13.2188 6.84375V7.875H12H10.7812V6.84375V5.8125H12H13.2188V6.84375ZM19.3172 8.7C19.6828 8.84062 19.9078 8.99531 20.1703 9.27656C20.6203 9.75937 20.5734 9.54844 21.5109 15.2109C21.9797 18.0234 22.3734 20.3766 22.3875 20.4516L22.4156 20.5781H12H1.58438L1.6125 20.4516C1.62656 20.3766 2.02031 18.0234 2.48438 15.2109C3.29531 10.3266 3.34219 10.0875 3.49219 9.77344C3.80156 9.13125 4.34063 8.73281 5.03906 8.625C5.17031 8.60625 8.37656 8.59219 12.1641 8.59687L19.0547 8.60156L19.3172 8.7ZM21 21.8672V22.4531H11.9766H2.95312V21.8672V21.2812H11.9766H21V21.8672Z" fill="#B72A23"/>
<path d="M3.84369 2.34382C3.7265 2.46101 3.72181 2.67663 3.839 2.81726L3.92806 2.92976L5.68119 2.94382C6.82494 2.9532 7.49056 2.94382 7.59837 2.91101C7.87025 2.83132 7.94994 2.51726 7.75306 2.32038C7.69212 2.25945 7.41556 2.25007 5.80775 2.25007C3.99838 2.25007 3.93275 2.25476 3.84369 2.34382Z" fill="#B72A23"/>
<path d="M8.65793 2.33437C8.54543 2.46094 8.55481 2.73281 8.67668 2.84062C8.76575 2.92031 8.85012 2.92969 9.43137 2.92969C10.0642 2.92969 10.0876 2.925 10.1767 2.81719C10.2939 2.67656 10.2892 2.46094 10.172 2.34375C10.0876 2.25937 10.0173 2.25 9.40793 2.25C8.81262 2.25 8.72356 2.25937 8.65793 2.33437Z" fill="#B72A23"/>
<path d="M11.1048 9.825C9.28137 10.1531 7.79074 11.5594 7.30793 13.3969C7.17199 13.9078 7.13918 14.8453 7.23762 15.4031C7.64543 17.7375 9.62824 19.4062 12.0001 19.4062C14.372 19.4062 16.3548 17.7375 16.7626 15.4031C16.8517 14.8969 16.8282 13.9266 16.7157 13.4625C16.2423 11.5453 14.7189 10.1297 12.797 9.81563C12.3001 9.73594 11.5736 9.73594 11.1048 9.825ZM11.672 10.7859C11.672 10.9688 11.6907 11.1563 11.7189 11.2031C11.8079 11.3719 12.1736 11.3625 12.2907 11.1844C12.3095 11.1563 12.3282 10.9781 12.3282 10.7906V10.4438L12.5298 10.4766C14.3111 10.7531 15.6939 12.0516 16.0501 13.7906C16.0923 13.9875 16.1251 14.175 16.1251 14.2031C16.1251 14.2313 15.9892 14.25 15.7782 14.25C15.4126 14.25 15.3189 14.2922 15.2579 14.4891C15.2064 14.6391 15.3189 14.8453 15.4782 14.9016C15.5579 14.9297 15.7361 14.9531 15.8767 14.9531H16.1298L16.1017 15.1266C15.7923 16.9688 14.4611 18.3375 12.6845 18.6516C12.5298 18.6797 12.3892 18.7031 12.3657 18.7031C12.347 18.7031 12.3282 18.5484 12.3282 18.3563C12.3282 17.9813 12.2814 17.8828 12.0704 17.8313C11.9626 17.8031 11.7704 17.8781 11.7095 17.9719C11.6907 18 11.672 18.1781 11.672 18.3609C11.672 18.5484 11.6532 18.7031 11.6345 18.7031C11.6111 18.7031 11.4704 18.6797 11.3157 18.6516C9.53918 18.3375 8.20793 16.9688 7.89855 15.1266L7.87043 14.9531H8.12355C8.26418 14.9531 8.4423 14.9297 8.52199 14.9016C8.68137 14.8453 8.79387 14.6391 8.7423 14.4891C8.68137 14.2922 8.58762 14.25 8.22199 14.25C8.01105 14.25 7.87512 14.2313 7.87512 14.2031C7.87512 14.175 7.90793 13.9875 7.95012 13.7906C8.28762 12.1547 9.54855 10.8797 11.1798 10.5328C11.7001 10.4203 11.672 10.4063 11.672 10.7859Z" fill="#B72A23"/>
<path d="M13.1203 12.9605L12.4406 13.6448L12.2203 13.598C11.4937 13.4339 10.8515 14.0714 11.0156 14.8026C11.1469 15.3886 11.7094 15.712 12.2953 15.5433C12.7969 15.398 13.1109 14.8589 12.9844 14.3573L12.9328 14.137L13.6125 13.4573C14.2125 12.8573 14.2969 12.7542 14.2969 12.6183C14.2969 12.4214 14.1562 12.2808 13.9547 12.2808C13.8234 12.2808 13.7203 12.3651 13.1203 12.9605ZM12.1078 14.3011C12.3609 14.4183 12.3609 14.7651 12.1078 14.8636C11.9437 14.9245 11.7797 14.8542 11.7187 14.6948C11.6484 14.512 11.7609 14.3292 11.9859 14.2542C11.9906 14.2495 12.0469 14.273 12.1078 14.3011Z" fill="#B72A23"/>
</svg>
