<svg width="76" height="76" viewBox="0 0 76 76" fill="none" xmlns="http://www.w3.org/2000/svg">
<path d="M33.1077 0.734375C18.2688 2.69727 6.05199 13.2002 1.89183 27.541C1.39379 29.2549 0.851793 32.0234 0.661364 33.7812C0.426989 35.9053 0.456286 40.6221 0.719957 42.6436C2.81468 58.6543 14.9436 71.6768 30.7493 74.8408C33.2688 75.3389 34.9827 75.5 38.0295 75.5C42.9953 75.5 47.2287 74.6943 51.6526 72.9219C64.6457 67.707 73.9328 55.5488 75.3684 41.8525C75.6174 39.4209 75.4709 34.1475 75.0754 31.9062C74.5188 28.6689 73.508 25.2998 72.2629 22.5166L71.8381 21.5498L72.468 20.8027C74.6067 18.2832 75.5002 15.8809 75.5002 12.6582C75.5002 10.5928 75.1487 8.98145 74.3284 7.31152C73.5373 5.6709 73.0539 5.12891 72.3801 5.12891C71.2375 5.12891 70.9153 6.13965 71.677 7.37012C72.2629 8.35156 72.7024 9.37695 72.9368 10.3877C73.2151 11.5303 73.2151 13.8008 72.9368 14.9873C72.468 16.9502 71.091 19.0742 69.4651 20.3633C64.47 24.2891 57.2776 22.6338 54.4651 16.9062C53.8059 15.5732 53.5276 14.3281 53.5276 12.6582C53.5276 10.9736 53.8059 9.75781 54.4797 8.35156C56.8088 3.60547 62.5364 1.51074 67.3703 3.64941C68.4836 4.13281 69.0842 4.13281 69.4797 3.63477C70.1096 2.8291 69.758 2.12598 68.3664 1.49609C66.8723 0.822266 65.261 0.5 63.342 0.5C60.1194 0.5 57.7317 1.39355 55.1828 3.53223L54.4358 4.16211L53.469 3.7373C50.7004 2.49219 47.3459 1.48145 44.094 0.910156C41.7502 0.514648 35.5539 0.412109 33.1077 0.734375ZM41.8821 3.00488C43.7717 3.19531 46.4963 3.75195 48.342 4.32324C50.0266 4.85059 52.9856 6.05176 52.8977 6.19824C52.5608 6.82812 51.7698 8.58594 51.6965 8.89355C51.6379 9.11328 51.5793 9.28906 51.5647 9.28906C51.55 9.28906 51.008 9.06934 50.3635 8.79102C46.3938 7.12109 42.5412 6.35938 38.0002 6.35938C32.7854 6.35938 28.6252 7.31152 24.011 9.56738C14.4895 14.2402 8.04418 23.1904 6.57933 33.8252C6.19847 36.5498 6.33031 41.3691 6.85765 44.0059C7.41429 46.7012 8.36644 49.543 9.56761 51.9893C11.0764 55.0654 13.4641 58.4932 14.3137 58.7861C15.0901 59.0645 15.8811 58.4785 15.8811 57.6436C15.8811 57.4971 15.3537 56.6621 14.7092 55.7979C11.8967 52.0479 10.1682 48.2393 9.2014 43.6982C8.68871 41.2227 8.54222 36.5791 8.90843 34.0449C10.6662 22.0332 19.2795 12.4531 30.9543 9.52344C34.0891 8.73242 38.5276 8.43945 41.5305 8.84961C44.4162 9.23047 47.6096 10.1387 50.0705 11.252L51.1838 11.7646V13.0537C51.1838 17.5801 54.0403 21.8721 58.303 23.8057C59.6799 24.4355 61.4377 24.8164 62.9465 24.8164H64.2356L64.7629 25.9443C65.5246 27.6289 66.3596 30.207 66.7844 32.2871C67.3118 34.792 67.4582 39.4209 67.092 41.9551C65.1731 55.0801 55.1243 65.1436 42.0432 67.0771C40.1828 67.3408 36.4475 67.3848 34.5432 67.1504C29.343 66.5059 24.553 64.5576 20.2024 61.291C19.3381 60.6465 18.4885 60.1191 18.3127 60.1191C17.8879 60.1191 17.3606 60.5146 17.1994 60.9395C16.8918 61.7451 17.5803 62.4922 20.4953 64.4404C23.5276 66.4766 28.0246 68.3369 31.5549 69.04C34.0744 69.5234 35.2463 69.6406 37.927 69.6406C43.2004 69.6406 47.3752 68.6885 51.9895 66.4326C61.4524 61.7891 67.9709 52.7656 69.4065 42.2773C69.7141 40.0947 69.7141 35.8906 69.4065 33.7227C69.0256 30.9102 68.2639 28.1562 67.2092 25.6367C66.9309 24.9922 66.7112 24.4502 66.7112 24.4355C66.7112 24.4209 66.8869 24.3623 67.1067 24.3037C67.4143 24.2305 69.216 23.4248 69.802 23.1025C69.9045 23.0439 70.7395 24.9482 71.3108 26.5596C71.8088 27.9512 72.4973 30.6465 72.8049 32.4336C73.1711 34.6016 73.2444 39.8164 72.9514 42.2334C72.1311 48.5762 69.3918 54.9336 65.2463 60.0605C60.4856 65.9346 53.5715 70.3438 46.2327 72.1895C38.3078 74.1816 29.6799 73.2002 22.2825 69.4795C18.6936 67.6777 16.2473 65.9053 13.303 62.9756C11.0325 60.7197 10.1243 59.6211 8.58617 57.3066C5.74437 52.9854 3.72289 47.5654 3.07836 42.5703C2.77074 40.1973 2.77074 35.8027 3.07836 33.4297C3.35668 31.291 4.22093 27.7754 4.968 25.7539C8.64476 15.9395 16.8625 7.94141 26.6477 4.66016C31.6868 2.99023 36.5061 2.46289 41.8821 3.00488Z" fill="#B72A23"/>
<path d="M18.9424 27.2918L18.5908 27.5701L18.5469 32.0526L18.5029 36.5496L18.957 37.0037C19.3379 37.3699 19.4844 37.4285 19.8799 37.3553C20.7295 37.1942 20.8613 36.8572 20.8613 34.9822V33.3123H21.8867C22.4434 33.3123 23.0586 33.2391 23.2637 33.1512C23.9961 32.8143 24.0986 31.6424 23.4541 31.1883C23.2344 31.0418 22.7656 30.9686 22.0039 30.9686H20.8613V30.1629V29.3572H22.0918C23.1025 29.3572 23.3809 29.2986 23.7031 29.0496C24.2158 28.6541 24.2305 27.7899 23.7471 27.3358C23.4248 27.0428 23.2637 27.0135 21.3447 27.0135C19.5283 27.0135 19.2354 27.0428 18.9424 27.2918Z" fill="#B72A23"/>
<path d="M28.9619 27.3213C27.8633 27.7461 26.8232 28.7422 26.252 29.9141C25.8125 30.793 25.7686 31.0127 25.7686 32.1406C25.7832 33.1807 25.8418 33.5322 26.1934 34.2793C26.7061 35.4072 27.7021 36.4033 28.8447 36.916C29.5479 37.2383 29.9434 37.3262 30.8223 37.3262C32.082 37.3262 32.7998 37.1357 33.7959 36.4912C34.6602 35.9492 35.4072 35.0117 35.8174 33.9277C36.2422 32.7559 36.1689 31.042 35.6123 29.9287C35.1143 28.8887 34.1621 27.9365 33.166 27.4678C32.0527 26.9404 30.0898 26.8672 28.9619 27.3213ZM32.0381 29.5625C32.6094 29.8115 33.3857 30.6025 33.5908 31.1592C34.3672 33.2246 32.3457 35.4951 30.2363 34.9238C29.1523 34.6309 28.0537 33.3125 28.0391 32.2871C28.0244 30.2363 30.1924 28.7715 32.0381 29.5625Z" fill="#B72A23"/>
<path d="M40.9298 27.248C37.341 28.5518 36.3302 33.1221 39.0109 35.8174C40.0802 36.8721 41.1349 37.3115 42.6877 37.3115C44.1964 37.3115 45.2951 36.8721 46.2765 35.8906C47.463 34.7041 47.7414 33.9863 47.7414 32.1406C47.7414 30.6758 47.7267 30.5586 47.2433 29.6797C46.672 28.6396 46.0861 28.0684 44.9875 27.4971C44.006 26.999 41.9699 26.8672 40.9298 27.248ZM44.0939 29.7236C46.2765 30.998 45.7785 34.2646 43.3175 34.9092C41.4132 35.4219 39.3918 33.4443 39.9045 31.5693C40.4172 29.6504 42.4533 28.7568 44.0939 29.7236Z" fill="#B72A23"/>
<path d="M50.3489 27.2922C50.1731 27.38 49.968 27.5705 49.8801 27.7316C49.6604 28.1418 49.6604 36.257 49.8801 36.7404C50.1584 37.3263 50.7151 37.4582 52.5022 37.3849C53.8499 37.3117 54.2454 37.2384 54.9192 36.9162C56.2522 36.257 57.0872 34.9972 57.3655 33.2248C57.6438 31.4084 57.0872 29.4308 55.9885 28.3322C55.1536 27.4972 54.4065 27.2629 52.429 27.2043C51.4622 27.175 50.5247 27.2189 50.3489 27.2922ZM54.3333 30.1193C55.2708 31.13 55.3293 33.1662 54.4651 34.2941C54.0989 34.7922 53.3958 35.0705 52.5461 35.0705H52.0627V32.2726V29.4748L52.9563 29.5334C53.762 29.592 53.9084 29.6506 54.3333 30.1193Z" fill="#B72A23"/>
<path d="M15.4123 38.7324C13.5812 39.2012 12.5119 41.1348 13.215 42.7314C13.5666 43.5371 14.1672 43.9619 15.9543 44.6797C17.8293 45.4268 18.1076 45.7344 17.4631 46.3496C17.1847 46.6133 16.9943 46.6572 16.2912 46.6133C15.6027 46.5693 15.339 46.4521 14.7678 46.0127C13.9181 45.3535 13.508 45.3242 12.922 45.9102C12.3215 46.5107 12.424 47.0967 13.259 47.8437C14.548 49.0156 16.8332 49.3525 18.3273 48.6201C20.2463 47.6533 20.715 45.3242 19.2795 43.8154C18.8107 43.3174 18.2687 43.0244 16.6574 42.4092C16.0129 42.1455 15.4269 41.8525 15.3976 41.75C15.3537 41.6328 15.4416 41.4277 15.6174 41.2812C16.0275 40.9004 16.8918 40.959 17.6974 41.4277C18.4885 41.8818 18.9426 41.9111 19.4553 41.501C19.7482 41.2666 19.8361 41.0762 19.8361 40.6367C19.8361 40.1533 19.7482 39.9922 19.3381 39.6699C18.3273 38.8643 16.5695 38.4395 15.4123 38.7324Z" fill="#B72A23"/>
<path d="M25.183 38.7178C25.0072 38.791 24.8021 38.9375 24.7142 39.0547C24.392 39.4209 21.4037 47.4336 21.4037 47.917C21.3891 48.5469 21.7992 48.9863 22.4291 48.9863C23.1762 48.9863 23.4252 48.7812 23.7914 47.8877L24.1283 47.0674L25.7396 47.1113L27.3363 47.1553L27.5853 47.7852C27.9516 48.7227 28.2445 48.9863 28.9037 48.9863C29.3578 48.9863 29.5482 48.8984 29.7826 48.6055C29.9584 48.3857 30.0902 48.0928 30.0902 47.9316C30.0902 47.4336 26.9848 39.4062 26.6625 39.0693C26.3109 38.6885 25.6224 38.5273 25.183 38.7178ZM26.0326 43.5957C26.1498 43.9473 26.2963 44.3428 26.3549 44.4746C26.4428 44.709 26.3695 44.7383 25.725 44.7383H24.9926L25.2855 43.9766C25.5932 43.1709 25.681 42.9805 25.7689 42.9805C25.7982 42.9805 25.9154 43.2588 26.0326 43.5957Z" fill="#B72A23"/>
<path d="M48.166 38.7469C47.8291 38.9227 47.5215 39.4647 47.5215 39.8895C47.5215 40.0359 47.6533 40.3289 47.8291 40.5486C48.0928 40.8709 48.2393 40.9295 48.9277 40.9295H49.7188V44.577C49.7188 48.034 49.7334 48.2391 50.0264 48.6053C50.4072 49.0887 51.3154 49.1473 51.7695 48.6932C52.0479 48.4149 52.0625 48.2098 52.0625 44.6649V40.9295H52.8682C53.4834 40.9295 53.7471 40.8563 53.9668 40.6365C54.4062 40.1971 54.4062 39.4207 53.9521 38.952C53.6885 38.6883 53.4541 38.659 51.0664 38.6297C49.4551 38.615 48.3564 38.659 48.166 38.7469Z" fill="#B72A23"/>
<path d="M56.75 38.6883C56.2666 38.8641 56.0176 39.2303 56.0176 39.7283C56.0176 40.1238 56.2959 40.6951 57.2627 42.1746L58.5078 44.1082V46.159C58.5078 48.0193 58.5371 48.2537 58.8154 48.6053C59.1963 49.0887 60.1045 49.1473 60.5586 48.6932C60.8223 48.4295 60.8516 48.2098 60.8516 46.2908V44.1961L62.0967 42.2772C62.7852 41.2225 63.3857 40.1824 63.4297 39.9481C63.5322 39.4354 63.0781 38.8055 62.5508 38.7029C61.8916 38.5711 61.4521 38.9227 60.5732 40.2557L59.6943 41.5594L58.874 40.2996C57.8486 38.7029 57.4678 38.4246 56.75 38.6883Z" fill="#B72A23"/>
<path d="M32.5801 39.0254C32.3018 39.3037 32.2871 39.5088 32.2871 43.918C32.2871 48.5176 32.2871 48.5322 32.6094 48.752C32.7852 48.8838 33.1367 48.9863 33.3857 48.9863C33.6348 48.9863 33.9863 48.8838 34.1621 48.752C34.4697 48.5469 34.4844 48.415 34.4844 46.7891V45.0605L35.6709 45.002C36.7549 44.958 36.8867 44.9141 37.209 44.5479C37.6338 44.0498 37.6631 43.5811 37.2529 43.0684C36.9746 42.7168 36.8721 42.6875 35.7148 42.6875H34.4844V41.8818V41.0762H35.7441C36.9453 41.0762 37.0186 41.0615 37.4434 40.6367C37.8096 40.2559 37.8682 40.1094 37.7949 39.7139C37.6338 38.835 37.3408 38.7324 34.9824 38.7324C33.0635 38.7324 32.8438 38.7617 32.5801 39.0254Z" fill="#B72A23"/>
<path d="M40.3586 39.0107C39.9191 39.4502 39.8752 39.9336 39.9338 44.3428L39.9777 48.4297L40.3293 48.708C40.6222 48.957 40.9152 48.9863 42.8488 48.9863C44.841 48.9863 45.0607 48.957 45.3244 48.6934C45.7199 48.2979 45.7199 47.375 45.3097 46.9941C45.0754 46.7891 44.7238 46.7158 43.6252 46.6719L42.2482 46.6133V45.8223V45.0312H43.464C44.8263 45.0312 45.2511 44.8408 45.3976 44.167C45.5148 43.6104 45.1632 42.9072 44.7091 42.7754C44.5187 42.7314 43.8888 42.6875 43.3175 42.6875H42.2482V41.8818V41.0762H43.5519C44.6359 41.0762 44.8996 41.0322 45.2365 40.7686C45.7199 40.3877 45.7785 39.4795 45.3244 39.0254C45.0607 38.7617 44.841 38.7324 42.8341 38.7324C40.8566 38.7324 40.6076 38.7617 40.3586 39.0107Z" fill="#B72A23"/>
<path d="M66.9307 8.71777C66.7695 8.80566 65.5098 9.99219 64.1475 11.3545L61.6572 13.8301L60.9248 13.083C59.7236 11.8672 59.0645 11.6475 58.4346 12.292C58.1855 12.5264 58.0684 12.8047 58.0684 13.1416C58.0684 13.5664 58.2588 13.8154 59.5186 15.0459C60.9395 16.4521 60.9688 16.4668 61.6719 16.4668H62.375L65.4951 13.3613C68.4395 10.4316 68.6152 10.2266 68.6152 9.71387C68.6152 8.82031 67.7217 8.29297 66.9307 8.71777Z" fill="#B72A23"/>
</svg>
