<svg width="73" height="74" viewBox="0 0 73 74" fill="none" xmlns="http://www.w3.org/2000/svg">
<path d="M61.9062 0.715988C61.3202 1.03825 53.3808 10.5158 53.205 11.1017C52.9706 11.8342 53.2783 12.6398 53.9374 13.0793C54.3769 13.3722 54.6259 13.4162 55.871 13.4162H57.3212V23.2599C57.3212 33.88 57.3066 33.6603 58.0976 34.0412C58.5956 34.2756 59.4452 34.0558 59.665 33.631C59.7529 33.4552 59.8115 29.383 59.8115 22.4543C59.8115 9.68083 60.0458 11.0431 57.8339 10.9259L56.4716 10.8527L59.5771 7.20525C61.2909 5.18376 62.7558 3.52849 62.829 3.51384C62.9023 3.48454 64.3671 5.13982 66.081 7.1613L69.2011 10.8527L67.7949 10.9259C65.6269 11.0431 65.8173 10.2228 65.8173 19.3049V26.9074L66.1835 27.259C66.6669 27.757 67.4579 27.757 67.9413 27.259L68.3076 26.9074V20.1691V13.4455L69.9189 13.3869C71.4863 13.3429 71.5302 13.3283 71.9843 12.8888C72.4824 12.3908 72.6728 11.5412 72.4384 10.9259C72.2919 10.5451 64.8212 1.65349 64.0449 0.921066C63.6933 0.598801 63.4736 0.525558 62.9169 0.525558C62.5361 0.540207 62.082 0.613449 61.9062 0.715988Z" fill="#B72A23"/>
<path d="M22.3114 9.00683C17.536 10.0176 13.7713 13.6504 12.4823 18.4697C12.0282 20.125 12.0282 23.2451 12.4676 24.8711C12.8631 26.3359 13.6395 28.0059 14.4598 29.1338C15.2215 30.2178 17.0672 32.0049 17.9022 32.4883C18.2391 32.6787 18.5028 32.8545 18.5028 32.8984C18.5028 32.9424 17.9315 33.1621 17.2284 33.3965C12.3944 34.9639 7.67757 38.5527 4.80648 42.8594C2.69711 46.0234 1.18832 50.0371 0.836754 53.4209C0.748863 54.2998 0.77816 54.4023 1.11507 54.8125L1.48129 55.2373L5.5975 55.3105C9.20101 55.3691 9.68441 55.4131 9.56722 55.6035C9.49398 55.7207 9.42074 56.8193 9.42074 58.0352C9.42074 60.6865 9.46468 60.7891 11.0321 61.4043C11.9403 61.7559 12.0721 61.8584 12.2186 62.3271C12.3065 62.6201 12.5555 63.2353 12.7459 63.6894L13.1268 64.5391L12.7313 65.4326C12.0575 67 12.1014 67.1318 14.0057 69.0361C15.8953 70.9258 15.9539 70.9551 17.536 70.3105L18.4735 69.915L19.8651 70.4863L21.2713 71.043L21.5789 71.9219C22.1502 73.4893 22.1063 73.4746 25.0213 73.4746C27.9364 73.4746 27.8924 73.4893 28.4637 71.9219L28.7713 71.043L30.1336 70.501C30.8661 70.208 31.5545 69.959 31.6424 69.959C31.7303 69.959 32.1551 70.1201 32.5946 70.3252C34.0008 70.9844 34.1473 70.9258 36.0369 69.0361C37.9412 67.1318 37.9852 67 37.3114 65.4473L36.9305 64.5684L37.4871 63.1768L38.0438 61.7852L39.0399 61.3896C40.5633 60.7891 40.6219 60.6719 40.6219 58.0644C40.6219 56.834 40.5487 55.75 40.4754 55.5889C40.3289 55.3252 40.3729 55.3105 41.7205 55.3105H43.1121L45.5731 57.083C46.9207 58.0644 48.078 58.9141 48.1366 58.9727C48.2098 59.0312 47.7264 60.7451 47.0672 62.7812C45.8368 66.6484 45.7782 66.9414 46.3055 67.7324C46.6131 68.2158 47.243 68.4941 48.0047 68.4941C48.6932 68.4941 48.5321 68.5967 53.3953 65.0664L54.9774 63.9238L57.6434 65.8721C61.3934 68.5967 61.2176 68.4941 61.9647 68.4941C63.1659 68.4941 63.9569 67.7471 63.9569 66.5898C63.9569 66.3115 63.4442 64.5391 62.8289 62.6641C62.2137 60.7744 61.7157 59.1924 61.7157 59.1338C61.7157 59.0752 63.1073 58.0205 64.7918 56.79C66.6668 55.4277 67.9559 54.3877 68.0877 54.124C68.3514 53.626 68.3661 52.7324 68.117 52.2344C68.0145 52.0439 67.7069 51.7217 67.4432 51.5459C66.9598 51.209 66.8573 51.209 63.0194 51.209H59.1082L57.9071 47.5176C56.618 43.5478 56.3983 43.1523 55.4022 42.9473C54.743 42.8154 53.8787 43.0937 53.5272 43.5478C53.3514 43.7529 52.6776 45.5693 52.0184 47.5615L50.8319 51.209H49.8358C48.8543 51.209 48.825 51.1943 48.7371 50.7988C47.9901 47.4004 45.7635 43.1084 43.3026 40.3398C40.5194 37.2051 36.6229 34.6269 32.8143 33.3965C32.1112 33.1621 31.5399 32.9424 31.5399 32.8984C31.5399 32.8545 31.8036 32.6787 32.1405 32.4883C32.9754 32.0049 34.8211 30.2178 35.5828 29.1338C36.4032 28.0059 37.1795 26.3213 37.575 24.8711C38.0145 23.2305 38.0145 20.1103 37.575 18.4697C35.7293 11.6728 29.1082 7.57128 22.3114 9.00683ZM28.0975 11.7168C29.7821 12.2588 30.9979 13.0205 32.3455 14.3682C34.118 16.1553 34.9823 17.8545 35.3631 20.3008C35.8758 23.5967 34.3817 27.4053 31.7303 29.6025C27.7606 32.8838 22.3993 32.9131 18.4149 29.6904C15.7196 27.5078 14.1668 23.6113 14.6795 20.3154C15.3827 15.8477 18.5467 12.4492 22.9705 11.4238C24.3182 11.1162 26.6473 11.248 28.0975 11.7168ZM28.6395 34.9346C30.8661 35.3154 32.4334 35.8281 34.5428 36.8535C39.8162 39.4023 43.8885 44.0312 45.7489 49.5684C45.9832 50.3008 46.1883 50.96 46.1883 51.0478C46.1883 51.1504 45.661 51.209 44.5916 51.209C43.1854 51.209 42.951 51.2529 42.5116 51.5459C42.2332 51.7217 41.911 52.0879 41.7938 52.3369L41.5741 52.8203H39.5526H37.5457L37.2235 52.1758L36.9159 51.5166L37.2967 50.5937C37.9852 48.9971 37.9412 48.8799 36.0516 47.0049C35.1287 46.0967 34.2205 45.3203 34.0155 45.2764C33.7518 45.2031 33.327 45.3203 32.6385 45.6279L31.6278 46.082L30.3534 45.5693C29.6502 45.291 29.0203 45.0566 28.9471 45.0566C28.8739 45.0566 28.6541 44.6172 28.4637 44.0752C27.8778 42.4199 27.8778 42.4199 25.0213 42.4199C22.1649 42.4199 22.1649 42.4199 21.5936 44.0459C21.2713 44.9541 21.2127 45.0273 20.6561 45.2031C20.3338 45.291 19.7186 45.54 19.2938 45.7451L18.5321 46.0967L17.4627 45.6426C16.745 45.335 16.2616 45.2178 16.0125 45.2764C15.8075 45.3203 14.8993 46.0967 14.0057 47.0049C12.1014 48.8799 12.0575 48.9971 12.7459 50.5937L13.1268 51.5166L12.8192 52.1758L12.4969 52.8203H7.97054H3.44418L3.64925 51.8389C4.70394 46.8437 8.08773 41.7021 12.3065 38.7139C17.0379 35.3594 23.0145 33.9824 28.6395 34.9346ZM26.5008 45.9648L26.9256 47.0342L28.2733 47.4883C29.0057 47.7373 29.9139 48.1182 30.2655 48.3379C31.1004 48.8213 31.7303 48.8213 32.7264 48.3525L33.5174 47.9863L34.2645 48.7334L35.0262 49.4805L34.6014 50.418C34.367 50.9307 34.1766 51.4434 34.1766 51.5459C34.1766 51.6631 34.3524 52.0732 34.5575 52.4687C34.7625 52.8643 35.1727 53.8457 35.4803 54.6514L36.0077 56.1162L37.077 56.541L38.1317 56.9512V58.0059V59.0605L37.1942 59.3975C36.0955 59.793 35.8758 59.9834 35.6414 60.8769C35.5536 61.2432 35.1727 62.1807 34.8065 62.9717L34.1327 64.3926L34.5428 65.4326L34.9676 66.458L34.2205 67.2051L33.4588 67.9521L32.5946 67.5713C32.1112 67.3516 31.5985 67.1758 31.452 67.1758C31.3055 67.1758 30.7635 67.3955 30.2362 67.6738C29.7088 67.9375 28.8153 68.3037 28.244 68.4941C27.0282 68.8896 26.8524 69.0361 26.4129 70.1494L26.0907 70.9844H25.0213H23.952L23.6297 70.1348C23.1903 69.0361 23.0145 68.8896 21.7987 68.4941C21.242 68.3037 20.3338 67.9375 19.8065 67.6738C19.2791 67.3955 18.7371 67.1758 18.5907 67.1758C18.4442 67.1758 17.9315 67.3516 17.4481 67.5713L16.5838 67.9521L15.8221 67.2051L15.075 66.458L15.4998 65.4326L15.91 64.3926L15.2362 62.9717C14.87 62.1807 14.4891 61.2432 14.4012 60.8769C14.1668 59.998 13.9471 59.7783 12.8485 59.3828L11.911 59.0459V58.0059V56.9512L12.9657 56.541L14.035 56.1162L14.4744 54.8711C14.7235 54.1826 15.1483 53.2012 15.3973 52.6738C15.661 52.1465 15.8661 51.6484 15.8661 51.5312C15.8661 51.4287 15.6756 50.9307 15.4412 50.418L15.0164 49.4805L15.7782 48.7334L16.5252 47.9863L17.3162 48.3525C18.2977 48.8213 18.9422 48.8213 19.7479 48.3525C20.0848 48.1475 20.993 47.7666 21.7401 47.5029L23.117 47.0342L23.5418 45.9648L23.9813 44.9102H25.0213H26.0614L26.5008 45.9648ZM56.0028 49.8174C57.0428 53.0107 57.0575 53.0254 57.5702 53.3769C57.9071 53.582 58.4491 53.6406 61.2909 53.6992L64.6161 53.7725L62.2137 55.5156C60.8953 56.4824 59.6795 57.4199 59.5037 57.5957C59.328 57.7861 59.1668 58.1963 59.1229 58.5771C59.0496 59.207 59.1082 59.4414 60.8368 64.7295C60.9686 65.125 60.9539 65.125 60.0604 64.4805C55.6366 61.2725 55.7098 61.3164 54.992 61.3164C54.201 61.3164 54.1571 61.3457 51.242 63.4844C50.0409 64.3633 49.0301 65.081 49.0155 65.0664C49.0008 65.0518 49.411 63.7187 49.9383 62.1221C50.993 58.9434 51.0662 58.2549 50.451 57.5957C50.2752 57.4199 49.0594 56.4824 47.7411 55.5156L45.3387 53.7725L48.6786 53.6992C51.7547 53.626 52.0623 53.5967 52.4432 53.3184C52.7948 53.0693 53.0145 52.5566 53.8787 49.9346C54.45 48.2207 54.9481 46.873 54.992 46.9316C55.0506 46.9902 55.5047 48.2793 56.0028 49.8174Z" fill="#B72A23"/>
<path d="M22.9412 50.2567C20.0701 51.0331 17.741 53.5379 17.1697 56.453C16.3201 60.9061 19.3377 65.1834 23.8201 65.8866C27.5408 66.4579 31.2322 64.2899 32.5359 60.745C33.0193 59.4559 33.1219 57.5223 32.7996 56.1307C32.1404 53.3182 29.8553 50.9891 27.0428 50.2567C26.0027 49.9784 23.9519 49.993 22.9412 50.2567ZM27.3064 53.0106C28.4051 53.5379 29.4451 54.5926 29.9871 55.7499C30.3973 56.5995 30.4412 56.8485 30.4412 58.0204C30.4412 59.1336 30.368 59.4706 30.0457 60.159C29.0057 62.4295 26.5447 63.7918 24.2596 63.411C22.3699 63.0741 20.7879 61.8875 19.9969 60.1737C19.6746 59.4706 19.6014 59.1336 19.6014 58.0204C19.6014 56.8924 19.66 56.5848 19.9969 55.8524C20.6853 54.3729 21.784 53.3329 23.2049 52.8202C24.3621 52.3807 26.1785 52.4833 27.3064 53.0106Z" fill="#B72A23"/>
<path d="M45.9392 15.1297C45.3972 15.6131 38.9665 23.2009 38.7321 23.6404C38.5124 24.0652 38.527 24.783 38.7907 25.281C39.1276 25.9402 39.6989 26.1599 41.0612 26.1599H42.2331V31.0965C42.2477 34.7586 42.2917 36.1062 42.4235 36.282C42.9362 36.9558 43.903 36.9705 44.4304 36.3113C44.7087 35.9451 44.7233 35.7254 44.7233 30.3054C44.7233 23.4207 44.7966 23.6697 42.9362 23.6697C42.4528 23.6697 42.0866 23.6111 42.1159 23.5379C42.1452 23.4646 43.2731 22.117 44.6208 20.5203L47.0964 17.6345L47.5065 18.1179C47.7263 18.3963 48.8688 19.7293 50.0407 21.1062L52.1501 23.5965L51.1393 23.6697C50.2458 23.7283 50.07 23.8015 49.7624 24.1531L49.4108 24.5633V33.6453C49.4108 43.2547 49.4255 43.4011 50.07 43.6502C50.5974 43.8406 51.2712 43.7381 51.5788 43.4011L51.9011 43.0642V34.6121V26.1599H53.0729C54.8893 26.1599 55.5632 25.6765 55.5632 24.3728C55.5632 23.6843 55.5632 23.6843 51.8864 19.3631C49.8649 16.9754 48.0925 14.9539 47.946 14.8806C47.7995 14.7927 47.3893 14.7342 47.0378 14.7342C46.5397 14.7342 46.2907 14.822 45.9392 15.1297Z" fill="#B72A23"/>
<path d="M66.6084 28.5039C65.9199 28.7822 65.8174 29.1631 65.8174 31.3164C65.8174 33.2207 65.832 33.3379 66.1689 33.7188C66.4326 34.0264 66.6377 34.1289 67.0625 34.1289C67.4873 34.1289 67.6924 34.0264 67.9561 33.7188C68.293 33.3379 68.3076 33.2207 68.3076 31.2871C68.3076 29.3828 68.293 29.2217 67.9854 28.8848C67.6045 28.46 67.0625 28.3135 66.6084 28.5039Z" fill="#B72A23"/>
<path d="M57.79 35.2422C57.3359 35.667 57.292 35.9892 57.3506 38.0693C57.3945 40.0615 57.5264 40.4131 58.3027 40.5595C58.8008 40.6474 59.4893 40.4131 59.665 40.0761C59.7529 39.9297 59.8115 38.8457 59.8115 37.6738C59.8115 35.5644 59.8115 35.5498 59.4307 35.2568C58.9326 34.8613 58.2002 34.8613 57.79 35.2422Z" fill="#B72A23"/>
<path d="M66.1836 35.3154C65.832 35.6523 65.8174 35.7402 65.8174 37.7178C65.8174 39.6367 65.832 39.7979 66.1543 40.1494C66.4033 40.457 66.623 40.5449 67.0625 40.5449C67.502 40.5449 67.7217 40.457 67.9707 40.1494C68.293 39.7979 68.3076 39.6367 68.3076 37.7178C68.3076 35.7402 68.293 35.6523 67.9414 35.3154C67.458 34.8174 66.667 34.8174 66.1836 35.3154Z" fill="#B72A23"/>
</svg>
