<svg width="71" height="64" viewBox="0 0 71 64" fill="none" xmlns="http://www.w3.org/2000/svg">
<path d="M20.3802 1.00014C12.6145 1.84389 6.75516 3.93764 3.98953 6.87514C3.06766 7.84389 2.91141 8.10951 2.14578 10.0783C1.38016 12.047 0.880156 13.8126 0.567656 15.7189C0.192656 17.9064 0.317656 22.5001 0.786406 24.6095C1.45828 27.672 2.63016 30.422 3.83328 31.7814C5.66141 33.8595 9.88016 35.9376 14.3802 36.9845C15.5989 37.2814 15.927 37.297 16.302 37.1408C16.8333 36.922 17.052 36.5626 17.052 35.9064C17.052 35.2033 16.4895 34.7189 15.4114 34.5001C12.4583 33.8908 8.59891 32.2658 6.95828 30.9689C5.73953 30.0001 5.13016 29.2033 4.55203 27.7814C3.47391 25.1564 2.97391 22.6095 2.97391 19.5939C2.97391 16.3751 3.30203 14.6876 4.52078 11.3751C5.17703 9.60951 5.33328 9.34389 6.11453 8.56264C9.61453 5.07826 18.8645 3.03139 29.3645 3.43764C35.5052 3.67201 41.7239 5.10951 45.177 7.10951C45.7395 7.43764 46.5833 8.09389 47.052 8.56264C47.7708 9.28139 48.0052 9.65639 48.4895 10.9064C49.3177 13.0939 49.6927 14.3908 49.9583 16.0158C50.1927 17.547 50.2552 20.547 50.0833 22.3126C49.9895 23.3283 50.0052 23.4064 50.3802 23.7814C50.8645 24.2658 51.6927 24.3283 52.2083 23.9064C52.677 23.5158 52.8177 22.6095 52.8177 19.6564C52.8333 16.0001 52.3489 13.4376 51.052 10.172C50.1927 7.98451 50.1145 7.87514 49.177 6.87514C46.3802 3.90639 40.4427 1.79701 32.6458 0.984512C29.802 0.687637 23.0989 0.703262 20.3802 1.00014Z" fill="#B72A23"/>
<path d="M5.66149 14.2812C5.25524 14.8125 5.23961 15.4375 5.64586 15.9531C6.03649 16.4531 8.56774 17.75 10.3959 18.3906C14.3177 19.7812 22.1615 21.0937 23.2865 20.5468C23.7865 20.3125 24.1459 19.6093 24.0209 19.0937C23.8334 18.3593 23.4271 18.125 22.099 18.0156C16.5521 17.5468 11.5834 16.2968 8.34899 14.5625C6.80211 13.7343 6.14586 13.6718 5.66149 14.2812Z" fill="#B72A23"/>
<path d="M38.6302 25.9219C30.5989 26.6875 24.3177 28.875 21.4895 31.875C20.5208 32.8906 20.3802 33.1719 19.4583 35.6406C18.2864 38.7656 17.9739 40.3438 17.8802 43.7969C17.8177 46.3281 17.8489 47.0312 18.1145 48.6406C18.6614 51.8438 19.9895 55.2656 21.1927 56.6562C24.2708 60.1719 32.302 62.875 40.6458 63.1875L43.0677 63.2812L54.3177 60.2812C61.5052 58.375 65.802 57.1562 66.2083 56.9219C67.4739 56.1875 68.2552 54.9375 69.1614 52.2344C70.0677 49.5469 70.2395 48.2812 70.2552 44.5781C70.2552 40.3438 69.9895 38.8438 68.5052 35.0469C67.7552 33.1406 67.5989 32.8594 66.7552 31.9531C63.8645 28.8594 57.5677 26.6719 49.3958 25.9219C47.3489 25.7344 40.5989 25.7344 38.6302 25.9219ZM49.9739 28.6406C57.9583 29.4844 64.427 32.0625 65.5677 34.875C66.052 36.0781 66.0677 36.0469 65.0677 35.8125C62.4114 35.1875 57.7239 35.2656 54.1927 35.9844C47.052 37.4219 42.427 40.6875 40.9427 45.2812C39.9427 48.3906 39.802 49.3906 39.802 53.25C39.802 56.375 39.8333 56.9375 40.1614 58.3281C40.3645 59.1875 40.552 60.0469 40.5989 60.25C40.6927 60.6094 40.677 60.6094 39.5364 60.5156C31.7239 59.8125 25.3489 57.5469 23.0364 54.6406C22.427 53.8594 21.5364 51.6562 21.0208 49.5938C20.5364 47.6875 20.3333 43.4844 20.6302 41.5312C21.0677 38.7344 22.3645 34.9219 23.2552 33.8906C25.2552 31.5312 31.1927 29.4062 37.5989 28.7188C38.552 28.625 39.4583 28.5156 39.6302 28.5C40.7395 28.3281 47.9739 28.4375 49.9739 28.6406ZM63.6927 38.2656C64.9114 38.4688 66.4114 38.9688 66.8645 39.3125C67.4427 39.7656 67.7239 41.9219 67.6302 45.2812C67.5677 47.7031 67.5052 48.2188 67.0833 49.8125C66.5833 51.6562 65.9739 53.3125 65.5364 53.9844C65.3958 54.1875 65.0677 54.4688 64.802 54.6094C63.9583 55.0469 43.552 60.3906 43.427 60.2188C43.2395 59.9062 42.7083 57.5781 42.5052 56.25C42.2708 54.5938 42.4114 50.2969 42.7395 48.7969C43.5208 45.3125 44.2864 43.875 46.177 42.2812C49.9427 39.1094 57.8802 37.2969 63.6927 38.2656Z" fill="#B72A23"/>
</svg>
