<svg width="69" height="63" viewBox="0 0 69 63" fill="none" xmlns="http://www.w3.org/2000/svg">
<path d="M25.0518 0.914093C14.5342 2.10062 5.45215 9.49808 2.12695 19.5909C1.07227 22.8135 0.881836 24.1758 0.881836 28.2774C0.896484 31.6026 0.925781 31.9981 1.27734 33.712C2.97656 41.6075 7.7666 48.17 14.7539 52.1836C15.4277 52.5645 16.7754 53.209 17.7568 53.6192C24.832 56.5342 33.0645 56.3438 39.8906 53.1065C40.9453 52.6084 41.2383 52.5205 41.1797 52.711C40.5205 54.9522 39.4805 59.2149 39.5098 59.5518C39.583 60.3428 40.0371 60.3428 42.3955 59.4932C43.5381 59.083 44.5049 58.7461 44.5342 58.7461C44.5488 58.7461 45.252 59.5371 46.0723 60.5039C47.3174 61.9834 47.625 62.2618 47.9619 62.2618C48.1963 62.2618 48.4453 62.1739 48.5332 62.0713C48.6211 61.9688 49.3389 59.5079 50.1006 56.6075C51.0234 53.1651 51.5947 51.2754 51.7559 51.1582C51.9609 50.9971 52.8838 50.9971 53.0303 51.1582C53.0596 51.1875 53.7188 53.6045 54.4951 56.5489C55.374 59.8594 56.0039 61.9688 56.1504 62.0713C56.6924 62.5108 57.0147 62.3057 58.3916 60.6944C59.124 59.8155 59.8125 59.0245 59.915 58.9219C60.0762 58.7461 60.4424 58.8487 62.1416 59.4639C63.2695 59.8741 64.2803 60.211 64.4121 60.211C64.8076 60.211 65.1592 59.8301 65.1445 59.3907C65.1445 59.1563 64.5 56.6368 63.7383 53.7803C62.9619 50.9239 62.376 48.5508 62.4053 48.4922C62.4492 48.4336 62.6543 48.3457 62.8887 48.3018C63.9434 48.0967 64.5 47.1885 64.8955 45.1231C65.042 44.3614 65.1885 43.6582 65.2471 43.5704C65.291 43.4825 65.8916 42.9258 66.5654 42.3399C67.2393 41.7393 67.8691 41.0508 67.9863 40.7871C68.3086 40.0108 68.2354 38.9707 67.752 37.6524C67.5176 36.9932 67.3125 36.2901 67.3125 36.0996C67.3125 35.8946 67.5176 35.1621 67.752 34.4737C68.25 33.0674 68.3086 32.0274 67.957 31.251C67.8252 30.9727 67.166 30.2842 66.4922 29.7129C65.8184 29.1416 65.2324 28.5704 65.1885 28.4385C65.1592 28.3067 65.0127 27.6475 64.8955 26.959C64.4268 24.4688 63.8994 23.9561 61.3066 23.4727L59.7832 23.1797L59.0508 22.3301C57.8203 20.8799 57.2344 20.3819 56.5898 20.2207C56.0479 20.0743 55.3301 20.1035 54.7881 20.3086C54.6563 20.3672 54.4951 20.0743 54.2754 19.3858C53.0156 15.5625 50.6426 11.7393 47.6836 8.79496C41.7363 2.84769 33.4453 -0.0380554 25.0518 0.914093ZM27.4688 8.13578V13.9219H22.4883C18.8994 13.9219 17.5078 13.878 17.5078 13.7608C17.5078 13.5118 18.5039 11.0362 19.0459 9.96683C19.793 8.48734 21.1846 6.45121 22.1953 5.38187C23.0889 4.41507 24.6563 3.25785 25.5059 2.92093C25.916 2.7598 27.1465 2.39359 27.3662 2.36429C27.4248 2.34964 27.4688 4.95707 27.4688 8.13578ZM31.4238 3.1846C32.2881 3.59476 32.8008 4.00492 33.9141 5.1182C35.877 7.06644 37.2979 9.3516 38.4697 12.3692C38.7188 13.0284 38.9678 13.6436 38.9971 13.7315C39.0557 13.878 38.0156 13.9219 34.0752 13.9219H29.0801V8.15042V2.37894L29.71 2.52542C30.0469 2.59867 30.8232 2.89164 31.4238 3.1846ZM21.0381 4.21C19.1045 6.27542 17.3613 9.23441 16.1895 12.501L15.6768 13.9219H11.2529C8.80664 13.9219 6.81445 13.878 6.81445 13.8047C6.81445 13.4971 8.54297 11.4317 10.0957 9.89359C12.2783 7.72562 14.0361 6.46585 16.7021 5.13285C18.3721 4.29789 21.4043 3.12601 21.9463 3.08207C22.0195 3.08207 21.6094 3.58011 21.0381 4.21ZM35.9209 3.53617C39.9492 4.82523 43.4209 6.91996 46.3506 9.8057C47.5371 10.9776 48.8848 12.5596 49.5147 13.5264L49.7637 13.9219L45.2666 13.8926L40.7695 13.8487L40.2129 12.3545C38.9238 8.94144 37.3272 6.24613 35.3936 4.21C34.8076 3.59476 34.3535 3.08207 34.4121 3.08207C34.4561 3.08207 35.1445 3.28714 35.9209 3.53617ZM15.1641 15.5918C15.1641 15.6358 15.0322 16.2071 14.8711 16.8809C14.2559 19.4444 13.9629 21.5684 13.6113 26.2559L13.5234 27.3985H7.95703H2.37598L2.46387 26.0215C2.6543 23.209 3.5625 19.8545 4.92481 17.0274L5.64258 15.5332H10.4033C13.0254 15.5332 15.1641 15.5625 15.1641 15.5918ZM27.4688 21.4659V27.3985H21.3018H15.1494L15.2227 26.4024C15.2666 25.8604 15.3398 24.8643 15.3838 24.1758C15.5449 21.7588 16.3652 17.0567 16.8486 15.709C16.8926 15.5772 18.1084 15.5332 22.1953 15.5332H27.4688V21.4659ZM39.6709 15.8555C40.2568 18.4336 40.6816 20.6455 40.8721 22.169L41.1064 24.044L40.5938 24.6153C40.125 25.1426 39.9785 25.5674 39.7441 27.0323C39.7002 27.3252 39.5684 27.3252 34.3828 27.3692L29.0801 27.3985V21.4659V15.5332H34.3389H39.5977L39.6709 15.8555ZM51.4336 16.8662C51.7852 17.5547 52.2979 18.7559 52.5908 19.5323L53.1035 20.9532L52.7227 21.041C52.459 21.1143 51.7559 20.9532 50.5986 20.5869C48.1377 19.8106 47.5957 19.9571 45.9404 21.9053C45.3545 22.5938 44.7393 23.1797 44.5635 23.2237C42.6152 23.6631 42.5566 23.6485 42.5566 22.7989C42.5566 21.7735 41.6191 16.6172 41.2822 15.7383C41.2236 15.5625 41.9414 15.5332 46.0137 15.5625L50.8037 15.6065L51.4336 16.8662ZM50.3057 22.1983C51.126 22.4766 52.0488 22.711 52.3711 22.711C52.6787 22.711 53.5869 22.4766 54.3779 22.1983C55.1836 21.9053 55.9453 21.7002 56.1211 21.7442C56.2969 21.7881 56.8975 22.3594 57.4395 23.0039C57.9814 23.6485 58.6406 24.3077 58.8897 24.4688C59.1387 24.6299 60.0176 24.8789 60.8379 25.0401C61.6436 25.2012 62.4492 25.3916 62.6104 25.4795C62.9473 25.67 62.9766 25.7285 63.3574 27.5889C63.5186 28.3653 63.7383 29.2002 63.8555 29.4346C63.9727 29.6543 64.6318 30.3282 65.3203 30.9141C66.7998 32.1592 66.8291 32.2471 66.1406 34.1075C65.584 35.6455 65.584 36.378 66.1406 38.0186C66.7852 39.9375 66.7852 39.9522 65.3789 41.168C64.7051 41.7539 64.0459 42.3985 63.8994 42.6328C63.7529 42.8526 63.5039 43.7315 63.3428 44.5518C63.1816 45.3868 62.9619 46.2217 62.8447 46.3975C62.5957 46.7637 62.5371 46.7784 60.8086 47.1006C60.0908 47.2325 59.2852 47.4522 59.0215 47.584C58.7578 47.7159 58.0693 48.375 57.4981 49.0342C56.9268 49.708 56.2969 50.294 56.1064 50.3379C55.8867 50.3965 55.2129 50.2354 54.2754 49.8985C53.4551 49.6055 52.5908 49.3711 52.3418 49.3711C52.0928 49.3711 51.1992 49.6055 50.3643 49.8985C49.4268 50.2207 48.709 50.3965 48.4893 50.3379C48.3135 50.294 47.7129 49.7227 47.1709 49.0782C46.6289 48.4336 46.0137 47.8037 45.8232 47.6719C45.6182 47.5547 44.6953 47.2764 43.7578 47.086C42.8057 46.8809 41.9561 46.6319 41.8389 46.5293C41.7363 46.4121 41.502 45.6065 41.3262 44.7276C41.1357 43.8633 40.8867 42.9405 40.7695 42.7061C40.6377 42.4571 39.9932 41.8125 39.3486 41.2559C38.6309 40.6553 38.1182 40.1133 38.0596 39.8789C38.001 39.6299 38.1475 38.9707 38.5137 37.9014C39.1436 36.0703 39.1436 35.9971 38.4258 33.917C38.1182 33.0528 38.001 32.4668 38.0596 32.2325C38.1182 32.0274 38.6895 31.4121 39.3779 30.8262C40.0518 30.2403 40.7109 29.5518 40.8428 29.2881C40.96 29.0098 41.1797 28.1455 41.3262 27.3692C41.6484 25.5381 41.751 25.4356 43.7139 25.0547C44.5342 24.8936 45.3984 24.6592 45.6182 24.5567C45.8379 24.4395 46.4678 23.8243 47.0244 23.1944C47.9033 22.1836 48.4453 21.7002 48.7236 21.6856C48.7676 21.6856 49.4854 21.92 50.3057 22.1983ZM13.6113 30.0645C13.9775 34.9864 14.2119 36.7442 14.8564 39.4541C15.0322 40.1719 15.1641 40.8164 15.1641 40.8897C15.1641 40.9776 13.3037 41.0069 10.4473 40.9922L5.71582 40.9483L4.9541 39.4102C3.60645 36.6856 2.6543 33.2432 2.46387 30.3868L2.37598 29.0098H7.95703H13.5234L13.6113 30.0645ZM27.4688 35.0157V41.0215H22.1953H16.9365L16.79 40.4649C16.0869 37.8721 15.5303 34.6055 15.3838 32.2325C15.3398 31.4707 15.2666 30.4307 15.2227 29.918L15.1348 29.0098H21.3018H27.4688V35.0157ZM38.2354 29.669C37.8252 30.0205 37.459 30.3135 37.3857 30.3282C37.3272 30.3282 37.0781 30.6358 36.8438 31.0166C36.2578 31.9395 36.2725 32.6573 36.9023 34.5469L37.415 36.0411L36.9023 37.5352C36.3897 39.0586 36.2871 39.9668 36.5508 40.6407L36.6973 41.0215H32.8887H29.0801V35.0157V29.0098H34.0166H38.9531L38.2354 29.669ZM16.1016 43.7022C17.2002 46.8662 19.1631 50.25 21.0381 52.2276C22.2539 53.502 22.2979 53.502 19.7783 52.6377C17.0977 51.7149 14.124 50.045 11.8682 48.1993C10.5205 47.1006 8.39648 44.8594 7.42969 43.5411L6.66797 42.4864H11.165H15.6768L16.1016 43.7022ZM27.4688 48.2725V54.044L27 53.9561C25.5205 53.6924 23.6455 52.5645 22.2393 51.0996C20.6426 49.4444 18.9287 46.5586 17.8154 43.6143L17.3906 42.4864H22.4297H27.4688V48.2725ZM38.5283 42.7354L38.8652 42.9991L38.5137 43.9366C37.4004 46.8662 35.8623 49.3565 33.9287 51.2901C32.4492 52.7549 31.1016 53.5899 29.71 53.8975L29.0801 54.0293V48.2578V42.4864H33.6357C37.7373 42.4864 38.2207 42.5157 38.5283 42.7354ZM40.0518 46.5586C40.2568 47.2911 41.0772 48.17 41.6924 48.3018C41.9268 48.3457 42.1611 48.4336 42.1904 48.4922C42.2344 48.5655 42.1904 48.961 42.0879 49.3711C41.8828 50.2647 41.6338 50.4551 39.2022 51.6123C37.8398 52.2569 34.8809 53.3262 34.4707 53.3262C34.3828 53.3262 34.8076 52.8135 35.3936 52.1836C36.7266 50.8067 38.1182 48.7559 39.0264 46.8516C39.7441 45.3428 39.7295 45.3428 40.0518 46.5586ZM44.5488 48.8731C44.7246 48.917 45.3691 49.5323 45.9844 50.25C47.2588 51.7149 47.9326 52.0957 49.0606 51.9786L49.6904 51.9053L49.3535 53.1651C49.1484 53.8536 48.6943 55.5967 48.3135 57.0323C47.9326 58.4532 47.5811 59.625 47.5371 59.625C47.4932 59.625 46.9658 59.0245 46.3799 58.3067C45.4863 57.2373 45.208 56.9883 44.8857 56.9883C44.666 56.9883 43.7871 57.2373 42.9522 57.545L41.4141 58.1162L41.8389 56.5635C42.0732 55.7139 42.6299 53.6045 43.0986 51.8907C43.5527 50.1914 43.9922 48.7852 44.0801 48.7852C44.168 48.7852 44.3877 48.8291 44.5488 48.8731ZM60.8086 49.1807C60.8672 49.4151 61.4238 51.4659 62.0391 53.7657C62.6543 56.0655 63.1523 57.9698 63.1231 57.9991C63.0938 58.0284 62.376 57.794 61.4971 57.4864C60.3984 57.1055 59.7979 56.9737 59.5488 57.0469C59.3438 57.1055 58.7432 57.6768 58.1572 58.3799C57.6006 59.0684 57.1025 59.5811 57.0439 59.5079C56.9561 59.42 55.0078 52.2715 55.0078 52.0371C55.0078 51.9786 55.2715 51.9493 55.6084 51.9786C56.6484 52.0811 57.3809 51.6709 58.5527 50.3526C59.9883 48.6973 60.6182 48.375 60.8086 49.1807Z" fill="#B72A23"/>
<path d="M50.5984 25.3476C46.4089 26.0068 42.864 29.2441 41.824 33.3457C41.4285 34.8837 41.4285 37.1982 41.824 38.7216C42.7761 42.457 45.5007 45.2841 49.2947 46.4707C50.7302 46.9101 53.6599 46.9541 55.1541 46.5293C59.446 45.3427 62.5515 41.7099 63.0496 37.3007C63.6648 31.9394 60.2957 26.9736 55.0808 25.582C53.9968 25.289 51.697 25.1718 50.5984 25.3476ZM54.0847 27.0468C60.53 28.3798 63.5916 35.6894 59.9587 41.0947C57.2195 45.1962 51.9021 46.456 47.6833 43.9951C45.6179 42.7939 43.8894 40.4502 43.3474 38.1503C43.0251 36.7734 43.1423 34.415 43.5818 33.1552C44.6658 30.0791 47.3318 27.7207 50.5251 27.0322C51.741 26.7685 52.7664 26.7685 54.0847 27.0468Z" fill="#B72A23"/>
<path d="M56.4727 32.335C56.3555 32.3789 55.0371 33.624 53.543 35.1035L50.833 37.7988L49.5879 36.5537C48.5625 35.5283 48.2695 35.3086 47.9033 35.3086C47.3467 35.3086 47.0977 35.543 47.0977 36.0264C47.0977 36.5098 50.3643 39.8496 50.833 39.8496C51.0234 39.8496 52.2686 38.7217 54.3193 36.6563C57.7031 33.2578 57.9082 32.9795 57.1758 32.4668C56.8242 32.2178 56.8096 32.2178 56.4727 32.335Z" fill="#B72A23"/>
</svg>
