<svg width="70" height="75" viewBox="0 0 70 75" fill="none" xmlns="http://www.w3.org/2000/svg">
<path d="M17.3486 0.204971C15.3125 0.849503 13.7891 2.37294 13.1738 4.37978C12.9248 5.17079 12.8809 5.72743 12.8809 8.11513C12.8809 10.869 12.8955 10.9423 13.2178 11.2499C13.7158 11.7186 14.5215 11.6893 14.917 11.1913C15.1953 10.8251 15.2246 10.6054 15.2246 8.20302C15.2246 5.27333 15.3564 4.6581 16.1914 3.6913C16.4697 3.35439 17.0703 2.91493 17.5391 2.68056L18.374 2.2704H30.752H43.1299L43.9648 2.68056C44.4336 2.91493 45.0342 3.35439 45.3125 3.6913C46.1182 4.6288 46.2793 5.31728 46.2793 7.74892V9.88759L45.7666 10.2977C44.4922 11.3231 42.8369 13.8134 42.1191 15.8056C41.8701 16.5087 41.6064 17.1093 41.5479 17.1386C41.1377 17.2704 38.75 15.1903 36.875 13.0809C36.2744 12.3925 35.4834 12.0995 34.7217 12.246C34.4727 12.3046 33.4473 12.8612 32.4658 13.5057C30.415 14.8241 27.251 16.4354 25.1123 17.2118C23.0762 17.9735 20.1172 18.7059 17.8174 19.0429C14.917 19.4823 15.2246 19.6727 15.2246 17.3583C15.2246 16.2157 15.1514 15.2489 15.0635 15.0292C14.7266 14.2968 13.5547 14.1942 13.1006 14.8388C12.9248 15.0878 12.8809 15.6444 12.8809 17.2997V19.4384L12.0752 19.5263C8.80859 19.8632 7.03613 23.8475 8.92578 26.6747C9.64355 27.7733 11.2695 28.7108 12.4414 28.7108C12.9248 28.7108 12.8955 28.6669 13.1738 30.3954C13.4082 31.8163 14.082 33.7792 14.8877 35.3466C16.4551 38.3788 18.8281 40.8251 22.1533 42.8319C22.5195 43.0663 22.5488 43.1395 22.5488 44.1356C22.5488 45.3368 22.2559 45.9813 21.5674 46.3329C21.3477 46.4501 18.0225 47.578 14.1992 48.8524C10.376 50.1268 6.77246 51.3866 6.21582 51.6503C3.43262 52.9979 1.33789 55.6493 0.620117 58.7255C0.385742 59.7216 0.356445 60.6298 0.356445 67.1044C0.356445 74.0624 0.371094 74.3993 0.634766 74.6923C0.839844 74.912 1.08887 74.9999 1.52832 74.9999C2.65625 74.9999 2.59766 75.3954 2.65625 67.163C2.71484 60.8202 2.75879 59.7216 2.97852 58.9745C3.62305 56.704 5.23438 54.785 7.3291 53.789C8.00293 53.4667 11.3574 52.2802 14.7852 51.1376L21.0107 49.0722L22.2705 50.288C22.959 50.9618 23.9258 51.7675 24.4238 52.0604L25.3174 52.6171L24.3066 53.1151C22.6807 53.8915 21.5527 54.7265 20.0586 56.2499C18.4766 57.8466 17.4951 59.37 16.748 61.3622C16.2061 62.7977 15.8105 64.7753 15.8105 66.0643V66.8993L15.166 67.1483C12.4854 68.1737 11.8115 71.9091 13.9355 73.9306C14.1992 74.1796 14.7119 74.5311 15.0781 74.6923C15.7227 74.9852 15.9717 74.9999 30.752 74.9999H45.7666L46.499 74.6483C47.3193 74.2675 48.1982 73.3739 48.5645 72.5536C48.7109 72.2167 48.8135 71.5868 48.8281 70.9716C48.8428 69.2138 47.8906 67.7343 46.3379 67.1483L45.7373 66.914L45.6494 65.5077C45.415 61.9335 43.8037 58.4618 41.1963 55.9423C40.0098 54.785 38.3984 53.6425 37.0801 53.0419L36.3184 52.6903L37.2998 52.0897C37.8418 51.7675 38.8379 50.9765 39.5117 50.3319L40.7422 49.16L47.0557 51.2548C50.542 52.412 53.8525 53.5985 54.4092 53.8915C55.6836 54.5507 57.1631 56.0009 57.8076 57.2167C58.7744 59.0331 58.7744 59.0917 58.833 67.0897C58.9062 75.2929 58.8623 74.9999 59.9609 74.9999C60.415 74.9999 60.6641 74.912 60.8691 74.6923C61.1328 74.3993 61.1475 74.0477 61.1475 66.9579C61.1475 59.663 61.1475 59.5311 60.8105 58.3886C60.2686 56.5282 59.4043 55.0194 58.1445 53.745C56.3428 51.9286 55.8887 51.7235 47.583 48.9403C43.5107 47.5927 40.0244 46.3915 39.8486 46.3036C39.248 45.9667 38.9551 45.2782 38.9551 44.1356V43.0956L39.7314 42.6561C41.0059 41.9384 42.8223 40.4882 43.877 39.3602C44.873 38.2909 46.3525 36.1815 46.7041 35.3466L46.8945 34.8778L52.4756 34.8192C57.793 34.7753 58.1299 34.746 59.1699 34.4384C64.4873 32.8124 68.2373 28.7987 69.3652 23.5106C69.6582 22.1337 69.6436 19.2772 69.3506 17.7831C68.4863 13.579 65.6006 9.88759 61.7041 7.98329C59.7412 7.01649 58.4668 6.70888 55.9766 6.63564C53.2666 6.5331 51.5088 6.87001 49.4434 7.85146C49.0332 8.04189 48.6963 8.20302 48.667 8.20302C48.6377 8.20302 48.623 7.54384 48.623 6.75282C48.623 3.7206 47.4512 1.72841 44.9609 0.527237L44.0088 0.0731354L30.9717 0.0438385C20.7471 0.0291901 17.8027 0.0584869 17.3486 0.204971ZM57.998 9.16982C59.4043 9.46278 61.748 10.5907 62.9346 11.5722C64.8096 13.0956 66.333 15.5126 66.9336 17.9442C67.3438 19.5556 67.3438 21.914 66.9336 23.5106C65.8203 27.8319 62.4951 31.1132 58.0713 32.2557C57.002 32.5341 56.3428 32.5634 50.9668 32.622L45.0342 32.6806L45.5469 32.285C45.8252 32.0507 46.3525 31.5966 46.7041 31.245C47.3047 30.6591 47.334 30.5712 47.2754 29.9706C47.2168 29.4725 47.0264 29.121 46.3672 28.33C45.8984 27.7733 45.2393 26.7186 44.873 26.0009C43.9795 24.1698 43.6426 22.7636 43.6426 20.7274C43.6426 18.6913 43.9795 17.2704 44.873 15.454C46.1035 12.9784 47.7734 11.3378 50.3076 10.1073C52.8564 8.87685 55.127 8.59853 57.998 9.16982ZM39.9365 19.0429L41.2842 19.8485L41.2988 21.1815C41.2988 24.0233 42.251 26.8065 43.9795 29.1356L44.5654 29.9266L44.1992 30.2343C44.0088 30.41 43.335 30.952 42.7197 31.4501C41.46 32.4901 41.1523 33.0761 41.5039 33.8964C41.7969 34.5995 42.1191 34.7899 43.2324 34.8632L44.2285 34.9364L43.54 35.9618C40.7861 40.0634 35.8643 42.6268 30.752 42.6268C23.6914 42.6268 17.5537 37.8515 15.6934 30.9227C15.3564 29.619 15.3125 29.2235 15.2539 25.62L15.1953 21.7235L16.8652 21.5477C22.666 20.9325 28.6719 18.8085 33.6084 15.6151L35.0293 14.6923L36.8018 16.4647C38.1348 17.7831 38.9404 18.4423 39.9365 19.0429ZM12.8809 24.0966C12.8809 26.3085 12.8662 26.3671 12.5732 26.3671C12.0752 26.3671 11.1377 25.7665 10.8154 25.2391C10.4346 24.6239 10.4199 23.5985 10.7861 22.954C11.1377 22.3534 11.9287 21.8261 12.4561 21.8261H12.8809V24.0966ZM25.9326 44.37C28.9062 45.2196 33.8721 45.1171 36.333 44.1649C36.5381 44.0917 36.582 44.2235 36.6406 44.9999C36.7285 46.0839 37.2559 47.2411 37.915 47.7977L38.3691 48.164L37.5635 48.8964C37.124 49.2919 36.4502 49.8192 36.0547 50.0682L35.3223 50.5077L35.249 49.9511C35.0879 48.6766 34.1211 47.4169 32.7734 46.6991C32.2461 46.4208 31.9238 46.3622 30.752 46.3622C29.2139 46.3622 28.6426 46.5673 27.5879 47.4901C27.0459 47.9589 26.2109 49.4823 26.2109 49.9804C26.2109 50.1268 26.1523 50.244 26.0791 50.244C25.8887 50.244 24.292 49.0282 23.8086 48.5009L23.3691 48.0468L23.75 47.6366C24.3945 46.9628 24.8047 46.0106 24.8633 45.0145C24.9072 44.5018 24.9365 44.0917 24.9512 44.0917C24.9512 44.0917 25.4053 44.2235 25.9326 44.37ZM31.8799 48.9257C32.7148 49.4237 33.1689 50.4638 32.9346 51.2987L32.8027 51.7821H30.7959C29.6094 51.7821 28.7305 51.7235 28.6719 51.6356C28.4521 51.3427 28.5547 50.1708 28.8477 49.6874C29.4629 48.6766 30.8838 48.3104 31.8799 48.9257ZM33.2422 54.2577C38.1787 55.2977 42.1045 59.2675 43.1152 64.1893C43.2471 64.8046 43.3496 65.6542 43.3496 66.0643V66.7968H39.6143C37.168 66.7968 35.7617 66.8554 35.5273 66.9579C34.8535 67.2655 34.6924 68.4081 35.249 68.8768C35.4248 69.0233 36.6992 69.0819 40.4346 69.1405C45.166 69.2138 45.4004 69.2284 45.7959 69.5214C46.0156 69.6825 46.2939 70.0927 46.4111 70.4149C46.6016 70.9423 46.5869 71.0448 46.3379 71.5575C46.1914 71.8651 45.8691 72.2606 45.6494 72.4218C45.2393 72.7294 45.1074 72.7294 31.4404 72.7733C23.8525 72.8026 17.29 72.7733 16.8652 72.7294C15.9424 72.6122 15.2979 72.1288 15.0928 71.3817C14.9023 70.7079 15.166 69.9315 15.708 69.5214C16.1182 69.2138 16.2646 69.2138 23.7646 69.1698C31.3525 69.1259 31.3965 69.1259 31.7334 68.8182C32.2021 68.3788 32.1875 67.6317 31.7041 67.163L31.3525 66.7968H24.7461H18.1543V66.0643C18.1543 64.1454 19.0039 61.5966 20.293 59.6776C22.0947 56.953 24.9951 54.9755 28.1885 54.2724C29.3604 54.0087 32.0557 54.0087 33.2422 54.2577Z" fill="#B72A23"/>
<path d="M57.1924 11.0886C56.5332 11.2644 56.0352 11.8503 54.0283 14.8533L51.9189 18.0027L50.3076 18.0173C48.4619 18.0173 47.8906 18.2224 47.3486 19.0281C47.0264 19.5115 47.0117 19.6287 47.0117 23.1443C47.0117 26.6599 47.0264 26.7771 47.3486 27.2605C47.5244 27.5388 47.9199 27.8757 48.2129 28.0222C48.7256 28.2712 49.0918 28.2859 54.6582 28.1541C60.2539 28.0369 60.6055 28.0076 61.2939 27.7C62.9346 26.9675 63.2568 26.4988 64.5752 22.7341C65.7617 19.365 65.7617 18.4568 64.5752 17.3289C63.8721 16.6697 63.4473 16.5525 61.7334 16.5525H60.21L60.4443 15.7908C61.25 13.0369 59.5068 10.5173 57.1924 11.0886ZM58.291 14.2527C58.291 14.4724 58.1152 15.2634 57.8955 16.0252C57.5586 17.2556 57.5293 17.4607 57.7051 17.8709C58.042 18.7058 58.4082 18.8084 60.8545 18.8962L63.0518 18.9695L63.0957 19.3357C63.1396 19.7019 61.5723 24.2722 61.2207 24.8582C60.7373 25.6345 60.2979 25.7078 55.9912 25.8396L53.75 25.9129V22.7341V19.5408L55.8301 16.4353C57.6611 13.6961 57.9248 13.3591 58.0859 13.5935C58.1885 13.7254 58.291 14.0183 58.291 14.2527ZM51.4062 23.1443V25.9275H50.3809H49.3555V23.1443V20.3611H50.3809H51.4062V23.1443Z" fill="#B72A23"/>
<path d="M20.9961 24.375C20.4102 24.873 20.4248 25.6934 21.0254 26.1768C21.6114 26.6455 23.1348 27.0996 24.1602 27.0996C25.1709 27.0996 26.709 26.6455 27.2657 26.1914C27.5 26.001 27.7198 25.6494 27.7637 25.3857C27.8369 24.9902 27.7784 24.8438 27.4121 24.4629C26.8701 23.9355 26.6211 23.9209 25.5957 24.3896C25.127 24.6094 24.5557 24.7559 24.1602 24.7559C23.7647 24.7559 23.1934 24.6094 22.7246 24.3896C21.7432 23.9355 21.4942 23.9355 20.9961 24.375Z" fill="#B72A23"/>
<path d="M34.1797 24.3751C33.5938 24.8731 33.6084 25.6934 34.209 26.1768C34.9268 26.7481 36.4649 27.1436 37.7246 27.0704C39.2041 26.9678 40.7276 26.2354 40.918 25.5176C41.0205 25.1221 40.9912 24.961 40.7569 24.6387C40.2735 23.9796 39.834 23.921 38.8379 24.3604C37.7393 24.8585 36.919 24.8585 35.9082 24.3897C34.9268 23.9356 34.6778 23.9356 34.1797 24.3751Z" fill="#B72A23"/>
<path d="M30.5909 30.5858C30.0928 30.8348 29.6387 31.2303 29.3604 31.6258C28.9503 32.2118 28.921 32.329 28.921 33.6327C28.921 34.3944 28.877 35.0096 28.8184 35.0096C28.4815 35.0096 26.6505 34.2332 25.918 33.7791C24.8487 33.12 24.1749 33.076 23.7354 33.6327C23.0323 34.5116 23.5743 35.2879 25.5225 36.2547C27.3975 37.1776 28.8184 37.5145 30.8985 37.5438C32.9053 37.5584 33.9454 37.3241 35.7032 36.4598C37.1241 35.7713 38.0762 34.9364 38.0762 34.3944C38.0762 34.1893 37.9298 33.8377 37.7686 33.618C37.4903 33.2811 37.3585 33.2372 36.8458 33.2811C36.5089 33.325 36.1427 33.3983 36.0255 33.4569C35.8497 33.5301 35.7325 33.3836 35.5274 32.827C34.6925 30.5125 32.5684 29.5457 30.5909 30.5858ZM32.7589 32.7684C33.1983 33.1639 33.7403 34.5848 33.5059 34.7459C33.2862 34.8778 31.7774 35.2 31.7188 35.1268C31.5577 34.9217 31.1915 33.7645 31.1915 33.4715C31.1915 32.6805 32.1729 32.2411 32.7589 32.7684Z" fill="#B72A23"/>
<path d="M9.21875 67.6758C8.94043 67.9541 8.92578 68.1592 8.92578 71.2354C8.92578 74.9561 8.94043 75 10.0537 75C11.123 75 11.1816 74.7949 11.2402 71.6602C11.2988 68.6572 11.2402 68.0859 10.8154 67.6611C10.4346 67.2803 9.59961 67.2949 9.21875 67.6758Z" fill="#B72A23"/>
<path d="M50.6738 67.6758C50.3955 67.9541 50.3809 68.1592 50.3809 71.2354C50.3809 74.9561 50.3955 75 51.5088 75C52.5781 75 52.6367 74.7949 52.6953 71.6602C52.7539 68.6572 52.6953 68.0859 52.2705 67.6611C51.8896 67.2803 51.0547 67.2949 50.6738 67.6758Z" fill="#B72A23"/>
</svg>
