<svg width="80" height="65" viewBox="0 0 80 65" fill="none" xmlns="http://www.w3.org/2000/svg">
<path d="M50.6013 18.3879C55.2204 17.6248 60.3815 17.0839 65.0098 18.1835C69.18 19.1713 72.5705 22.0585 75.2227 25.1357C77.7374 28.1047 79.1816 31.7399 79.3435 35.5087C79.4341 37.4545 79.3357 39.402 79.0492 41.3268C78.8533 43.2287 78.4611 45.106 77.8781 46.9326C75.1868 54.567 67.8569 59.9375 59.8841 62.3325C51.2265 64.9361 41.8682 64.2455 32.9331 63.291C22.968 62.2174 12.5414 60.5358 2.67391 62.8528C2.35566 62.9305 2.018 62.9097 1.71086 62.7936C1.40372 62.6774 1.14343 62.4721 0.968481 62.2079C0.793531 61.9437 0.713223 61.6348 0.739431 61.3267C0.765635 61.0186 0.896961 60.7278 1.11399 60.4972C6.04765 54.4632 8.6098 47.3005 9.41744 39.7469C10.2045 32.4728 9.77422 25.0872 11.7449 17.9841C13.5831 11.3426 17.5114 5.04838 24.3077 1.99991C30.6062 -0.830943 38.3332 -0.733311 44.3296 2.93191C50.4965 6.70018 54.0185 14.2139 51.4536 20.8467C51.3615 21.184 51.1361 21.4744 50.8228 21.6595C50.5096 21.8447 50.1318 21.9108 49.7655 21.8445C49.3997 21.7624 49.0812 21.5492 48.8785 21.2509C48.6758 20.9525 48.6052 20.5928 48.6818 20.2492C49.5667 17.6341 49.5378 14.8129 48.5995 12.194C47.6612 9.57514 45.8621 7.29451 43.4627 5.68234C40.8144 3.96489 37.7232 2.95605 34.5254 2.76559C31.3276 2.57513 28.1458 3.21034 25.326 4.60209C11.7713 11.2637 13.7082 28.2913 12.383 40.374C11.571 48.3917 8.44952 56.0262 3.35185 62.4618L1.79193 60.1063C10.175 58.0375 18.7999 58.5371 27.3757 59.4637C35.8186 60.3829 44.3701 61.5956 52.8424 60.535C60.4595 59.58 68.2847 56.2154 72.5632 50.0297C74.7044 46.9335 75.4169 43.5171 75.8391 39.8859C76.2335 36.5306 76.1006 32.9432 74.4927 29.8304C73.5586 28.1401 72.3342 26.6034 70.8691 25.2828C69.4907 23.8555 67.8518 22.6704 66.0312 21.7845C63.8286 20.8265 61.2913 20.6883 58.9068 20.6357C56.2814 20.5724 53.6595 20.6813 51.0405 20.8172C49.5995 20.8913 49.109 18.6663 50.5721 18.4073L50.6013 18.3879Z" fill="#B72A23"/>
</svg>
