<svg width="63" height="67" viewBox="0 0 63 67" fill="none" xmlns="http://www.w3.org/2000/svg">
<path d="M62.4094 46.7263C59.745 48.4917 56.8341 49.7992 54.0364 51.2858C51.2388 52.7724 48.3412 54.3785 45.5036 55.9316C42.8147 57.4333 40.2549 59.1537 37.8501 61.0751L34.0533 64.0683L32.1349 65.5416C31.4688 66.0527 30.8626 66.7031 29.97 66.6367C29.8172 66.6333 29.6671 66.5956 29.5308 66.5265C29.3945 66.4574 29.2756 66.3587 29.1828 66.2376C29.0901 66.1165 29.0259 65.9761 28.9949 65.8269C28.964 65.6777 28.9672 65.5235 29.0042 65.3757C29.1507 64.5129 29.9501 64.0484 30.5895 63.5506C31.229 63.0528 31.9217 62.4754 32.5878 61.9445L36.3913 58.9712C38.8468 57.0205 41.4602 55.2757 44.2047 53.7547C47.049 52.2017 49.8933 50.6487 52.7908 49.1952C55.6884 47.7417 58.6725 46.1688 61.8565 45.4587C62.0244 45.3883 62.2134 45.3872 62.382 45.4556C62.5506 45.5241 62.6851 45.6565 62.7557 45.8237C62.8264 45.9909 62.8275 46.1793 62.7588 46.3473C62.6901 46.5153 62.5572 46.6493 62.3894 46.7197L62.4094 46.7263Z" fill="#F4DCAE"/>
<path d="M29.1507 66.3181C27.0725 63.9886 25.3073 61.3538 23.4355 58.8584C21.5638 56.3629 19.692 53.7746 17.8203 51.2327C14.059 46.1091 10.3133 40.97 6.58307 35.8154C4.58475 33.0877 2.70634 30.2007 0.34166 27.7915C0.177063 27.6215 0.0657768 27.4073 0.0214958 27.1752C-0.0227852 26.9431 0.00182724 26.7032 0.0923157 26.4849C0.182808 26.2665 0.335274 26.0792 0.530994 25.9459C0.726711 25.8125 0.957203 25.7389 1.19426 25.7341C4.807 25.8124 8.40915 26.154 11.9718 26.7562C15.541 27.2933 19.0803 28.011 22.5762 28.9065L20.9843 30.1078C21.1242 23.5174 21.0509 16.9271 20.8044 10.3434C20.8078 10.1273 20.8675 9.91585 20.9775 9.72966C21.0876 9.54347 21.2443 9.38896 21.4323 9.28124C21.6203 9.17353 21.8332 9.11631 22.0501 9.1152C22.2669 9.11408 22.4804 9.1691 22.6695 9.27487C29.2428 12.773 35.5381 16.7667 41.5003 21.2211C41.766 21.3886 41.9579 21.6504 42.0371 21.9536C42.1162 22.2567 42.0768 22.5785 41.9266 22.8538C41.7654 23.126 41.503 23.324 41.1962 23.4047C40.8895 23.4855 40.5632 23.4425 40.288 23.2852C34.3279 18.8251 28.0173 14.8501 21.4172 11.3986L23.2823 10.3368C23.5754 16.9205 23.6465 23.5086 23.4955 30.1011C23.4936 30.2928 23.4479 30.4816 23.3618 30.6531C23.2758 30.8245 23.1516 30.9742 22.9987 31.0906C22.8459 31.2071 22.6684 31.2873 22.4798 31.3251C22.2911 31.363 22.0963 31.3575 21.9101 31.309C18.513 30.4241 15.0848 29.7251 11.6255 29.2118C8.15504 28.6875 4.67799 28.4818 1.19426 28.1367L2.05352 26.0792C6.05015 30.725 9.62716 35.7424 13.2708 40.6802C17.0343 45.8038 20.7178 50.9871 24.4414 56.1439C25.5071 57.6173 26.5595 59.1106 27.612 60.5972C28.6644 62.0839 29.7702 63.5373 30.6894 65.1102C31.2423 66.046 29.9034 67.1477 29.1507 66.2916V66.3181Z" fill="#F4DCAE"/>
<path d="M40.0682 22.0706C40.842 18.4906 41.8522 14.9654 43.0923 11.5181C44.278 8.0537 45.6302 4.65566 47.089 1.29081C47.199 1.10799 47.3547 0.956702 47.5409 0.85166C47.7271 0.746618 47.9374 0.691406 48.1514 0.691406C48.3653 0.691406 48.5757 0.746618 48.7619 0.85166C48.9481 0.956702 49.1038 1.10799 49.2138 1.29081C50.4395 3.91234 50.8658 6.73961 51.412 9.55362C51.9759 12.465 52.6265 15.3564 53.3637 18.2279C54.8498 24.0184 56.6465 29.7254 58.7458 35.3243C59.9226 38.5011 61.2015 41.6381 62.5825 44.7353C62.7323 45.0095 62.7715 45.3303 62.6924 45.6323C62.6132 45.9344 62.4215 46.1951 62.1563 46.3613C61.8829 46.5189 61.5582 46.5627 61.2526 46.4832C60.9471 46.4037 60.6853 46.2072 60.5243 45.9365C55.679 35.0514 51.98 23.6948 49.4869 12.0491C48.8208 8.89657 48.4678 5.50517 47.0756 2.55843H49.2005C47.8083 5.83037 46.5361 9.15541 45.3304 12.5136C44.1248 15.8718 43.1123 19.2699 41.9133 22.6215C41.8324 22.849 41.668 23.0376 41.4532 23.1494C41.2384 23.2611 40.9891 23.2877 40.7554 23.2239C40.5217 23.16 40.321 23.0103 40.1935 22.805C40.066 22.5997 40.0212 22.3539 40.0682 22.1171V22.0706Z" fill="#F4DCAE"/>
<path d="M59.0389 40.3284C56.7009 41.2576 54.1763 41.7354 51.805 42.6049C49.413 43.483 47.0887 44.5345 44.8508 45.7507C40.3799 48.1611 36.2922 51.2185 32.721 54.8232C31.7485 55.8187 30.8093 56.8474 29.9167 57.916C29.0241 58.9845 28.1982 60.4048 27.1324 61.3671C26.971 61.5194 26.7603 61.6092 26.5382 61.6204C26.3162 61.6316 26.0975 61.5633 25.9215 61.428C25.7455 61.2927 25.6238 61.0992 25.5783 60.8824C25.5329 60.6655 25.5667 60.4397 25.6736 60.2455C26.3148 59.1105 27.1081 58.0678 28.0316 57.1461C28.8843 56.1572 29.7768 55.2015 30.6961 54.279C32.5792 52.4232 34.5817 50.6918 36.691 49.0957C40.8765 45.9112 45.4971 43.3389 50.4128 41.4567C53.0772 40.4413 56.0281 39.2997 58.8923 39.2068C59.5584 39.2068 59.6051 40.1028 59.0455 40.3284H59.0389Z" fill="#F4DCAE"/>
</svg>
