<svg width="94" height="67" viewBox="0 0 94 67" fill="none" xmlns="http://www.w3.org/2000/svg">
<path d="M91.8038 1.26754C93.904 4.17294 93.8644 8.01763 93.9436 11.4563C94.0933 15.2299 93.9449 19.0095 93.4998 22.7596C92.7039 29.3906 90.0983 35.6715 85.9709 40.9083C81.9373 45.9543 76.4792 49.6578 70.3128 51.5329C64.1464 53.408 57.5597 53.3671 51.4169 51.4156C45.3858 49.4256 39.2992 45.3421 37.2307 39.0139C36.2718 36.0926 36.4778 32.5265 38.4671 30.0748C38.9935 29.4059 39.6885 28.8907 40.4801 28.5828C41.2717 28.2748 42.1309 28.1853 42.9686 28.3236C44.626 28.734 46.1545 29.555 47.4146 30.7116C57.2023 38.4248 59.247 56.9796 47.058 63.4511C40.5989 66.8818 32.8322 67.2878 25.755 65.9744C18.6778 64.661 11.8462 61.4133 5.74381 57.4811C4.26682 56.5411 2.83843 55.5262 1.4642 54.4403C0.521095 53.7001 1.71781 52.3708 2.68469 52.8484C8.44633 55.7458 13.9544 59.0333 20.1202 61.079C26.286 63.1247 32.8005 64.0162 39.1407 62.671C42.1124 62.1272 44.9384 60.9668 47.4384 59.2641C49.6725 57.5415 51.221 55.0744 51.8052 52.3071C52.3908 49.6771 52.4385 46.9551 51.9454 44.3061C51.4522 41.6571 50.4285 39.1362 48.9363 36.8965C47.5573 34.819 45.473 32.5106 43.0875 31.6111C40.377 30.5763 39.7272 34.5802 39.9887 36.4587C40.7812 41.9352 46.2496 45.7242 50.9889 47.555C56.3525 49.6203 62.2135 50.0033 67.7983 48.6534C73.0354 47.3176 77.7941 44.5321 81.5327 40.6138C85.3817 36.667 88.1169 31.7633 89.4579 26.4052C90.2073 23.1946 90.6426 19.9181 90.7577 16.6224C90.969 13.3283 90.9902 10.0247 90.8211 6.72811C90.745 5.23773 90.4013 3.77344 89.8067 2.40582C89.7302 2.27516 89.68 2.13064 89.6592 1.98052C89.6383 1.8304 89.647 1.67762 89.6849 1.53089C89.7228 1.38417 89.7891 1.24639 89.88 1.1254C89.971 1.00441 90.0847 0.902594 90.2148 0.825763C90.3449 0.748932 90.4888 0.698592 90.6383 0.677612C90.7877 0.656633 90.9398 0.665429 91.0859 0.703496C91.232 0.741562 91.3692 0.808154 91.4896 0.899471C91.6101 0.990788 91.7115 1.10504 91.788 1.2357L91.8038 1.26754Z" fill="#F4DCAE"/>
<path d="M11.9651 53.6284C10.8477 55.0692 8.84259 55.2921 7.15452 55.3796C5.07867 55.4907 2.99731 55.3247 0.964905 54.8861L2.22503 52.7051C2.96717 53.4537 3.55672 54.3405 3.96064 55.316C4.14292 55.9687 3.47721 56.8363 2.75601 56.5338C1.8404 56.0382 1.03218 55.3644 0.378448 54.5518C0.17717 54.3446 0.0482712 54.0774 0.011116 53.7903C-0.0260468 53.5032 0.0305405 53.2118 0.172386 52.9598C0.32373 52.7186 0.546669 52.5312 0.809731 52.4241C1.07279 52.317 1.36271 52.2955 1.63856 52.3628C3.32228 52.6903 5.0286 52.8872 6.7424 52.9518C7.53492 52.9518 8.32745 53.0235 9.11996 52.9916C9.74184 53.0374 10.3624 52.8871 10.8952 52.5618C11.035 52.4214 11.2246 52.3425 11.4222 52.3425C11.6199 52.3425 11.8095 52.4214 11.9493 52.5618C12.089 52.7022 12.1676 52.8926 12.1676 53.0911C12.1676 53.2897 12.089 53.4801 11.9493 53.6205L11.9651 53.6284Z" fill="#F4DCAE"/>
<path d="M4.53919 62.2252C4.32521 61.5248 4.05575 60.872 3.74667 60.1954C3.51786 59.5496 3.25327 58.9171 2.95415 58.301C2.61336 57.6642 2.28842 57.0274 1.90801 56.4065C1.46083 55.7838 1.13542 55.0815 0.949066 54.3369C0.918968 54.2131 0.92083 54.0837 0.954483 53.9608C0.988129 53.838 1.05244 53.7258 1.14134 53.635C1.23024 53.5441 1.34076 53.4775 1.46245 53.4415C1.58413 53.4056 1.71295 53.4014 1.83669 53.4294C2.66686 53.7592 3.36971 54.348 3.84177 55.109C4.76537 56.4311 5.41737 57.9248 5.75967 59.5029C5.90859 60.3379 5.96706 61.1866 5.93402 62.0342C5.92429 62.2019 5.85681 62.361 5.74315 62.4843C5.62949 62.6075 5.47671 62.6872 5.31096 62.7098C5.14521 62.7324 4.97681 62.6964 4.83457 62.608C4.69234 62.5196 4.58511 62.3843 4.53126 62.2252H4.53919Z" fill="#F4DCAE"/>
</svg>
