<svg width="156" height="93" viewBox="0 0 156 93" fill="none" xmlns="http://www.w3.org/2000/svg">
<path d="M155.032 26.5318C153.266 21.5873 148.41 18.4064 144.169 15.4245C139.571 12.0775 134.699 9.08103 129.6 6.46314C120.574 1.8447 110.371 -0.321299 100.116 0.204482C90.1852 0.778587 80.6645 4.1789 72.8034 9.95929C64.9423 15.7397 59.108 23.6302 56.0659 32.5955C53.172 41.4598 52.8534 52.1481 58.9397 59.9287C61.7457 63.5254 66.4011 66.2739 71.2527 65.9598C72.5617 65.8936 73.8288 65.4971 74.9222 64.8115C76.0156 64.126 76.8956 63.1763 77.4708 62.0611C78.4372 59.7397 78.7736 57.2272 78.4494 54.7531C77.5239 36.6027 56.0861 18.5844 37.0803 27.6888C27.0071 32.512 19.5581 41.4347 14.881 50.9787C10.2039 60.5227 8.17164 71.3977 7.64922 81.9779C7.50802 84.5288 7.5042 87.0846 7.63775 89.6355C7.72324 91.3819 10.4593 91.0707 10.7245 89.5165C12.2399 80.2116 13.0396 70.8817 15.9841 61.8099C18.9285 52.7381 23.6318 44.2195 30.9839 37.7869C34.3211 34.6992 38.3012 32.3028 42.67 30.7506C46.8263 29.5324 51.3032 29.7569 55.2951 31.3837C59.116 32.8935 62.5716 35.1222 65.4524 37.9346C68.3332 40.7471 70.5792 44.0847 72.0541 47.745C73.4268 51.1342 74.4587 55.5585 73.455 59.159C72.3306 63.2606 66.7296 60.6739 64.6079 58.7846C58.4493 53.2411 58.5849 43.5374 60.5241 36.3475C62.7271 28.216 67.4841 20.9038 74.167 15.3761C80.5216 10.2513 88.2663 6.91447 96.5199 5.74524C104.908 4.46842 113.5 5.32351 121.417 8.22289C126.112 10.0249 130.61 12.2568 134.845 14.8868C139.164 17.4007 143.325 20.1493 147.307 23.1189C149.108 24.4611 150.637 26.1005 151.82 27.9581C151.916 28.159 152.052 28.3402 152.222 28.4911C152.391 28.6421 152.591 28.7599 152.808 28.8379C153.026 28.9159 153.258 28.9525 153.491 28.9457C153.724 28.9388 153.953 28.8886 154.166 28.798C154.379 28.7073 154.57 28.578 154.73 28.4173C154.89 28.2566 155.015 28.0678 155.098 27.8616C155.181 27.6554 155.22 27.4359 155.213 27.2156C155.206 26.9952 155.153 26.7784 155.058 26.5774L155.032 26.5318Z" fill="#B72A23"/>
<path d="M18.0389 77.7925C15.2339 77.9156 13.1628 80.1199 11.5447 82.0598C9.55056 84.4425 7.89884 87.0644 6.6327 89.8567L10.4934 90.185C10.2179 88.6713 9.63268 87.2235 8.77059 85.9227C8.11505 85.1572 6.43231 85.2227 6.16715 86.3369C5.97052 87.8452 6.09313 89.3749 6.52785 90.8369C6.60779 91.251 6.82765 91.6291 7.15439 91.9144C7.48113 92.1998 7.89712 92.377 8.33985 92.4194C8.77751 92.4414 9.21166 92.3328 9.58102 92.109C9.95039 91.8852 10.2363 91.5574 10.3985 91.1719C11.4924 88.8887 12.7701 86.6882 14.2205 84.5899C14.9287 83.6446 15.547 82.6392 16.2951 81.7207C16.7934 80.9405 17.5363 80.3265 18.4203 79.9642C18.7213 79.9154 18.9895 79.7555 19.1662 79.5197C19.3428 79.2839 19.4133 78.9916 19.3622 78.707C19.3111 78.4224 19.1425 78.1689 18.8935 78.0022C18.6446 77.8355 18.3357 77.7693 18.0348 77.8181L18.0389 77.7925Z" fill="#B72A23"/>
<path d="M0.624358 79.4313C1.31145 80.2746 1.88907 81.1441 2.46124 82.0808C3.06658 82.896 3.6232 83.7427 4.12848 84.6168C4.62242 85.558 5.13052 86.4802 5.5691 87.4553C5.95028 88.5115 6.54008 89.4893 7.30718 90.3368C7.43547 90.4766 7.59944 90.583 7.78353 90.646C7.96761 90.709 8.16573 90.7265 8.3591 90.6968C8.55249 90.6671 8.73473 90.5912 8.88856 90.4762C9.04239 90.3613 9.16269 90.2111 9.23812 90.04C9.56644 88.7729 9.45629 87.4403 8.92385 86.2383C8.0914 84.0265 6.80111 81.9947 5.1283 80.2614C4.21446 79.3827 3.20253 78.6003 2.11024 77.928C1.89125 77.7988 1.63148 77.7457 1.37539 77.7778C1.11929 77.8099 0.882797 77.9251 0.706389 78.1039C0.529983 78.2826 0.424639 78.5137 0.40838 78.7576C0.39212 79.0014 0.465963 79.243 0.617267 79.4407L0.624358 79.4313Z" fill="#B72A23"/>
</svg>
