<svg width="24" height="25" viewBox="0 0 24 25" fill="none" xmlns="http://www.w3.org/2000/svg">
<g clip-path="url(#clip0_2_2308)">
<path d="M0.51209 12.5228C0.511527 14.5393 1.04253 16.5082 2.05221 18.2436L0.415527 24.1731L6.53103 22.5821C8.2225 23.4957 10.1177 23.9745 12.0435 23.9746H12.0486C18.4062 23.9746 23.5815 18.8413 23.5842 12.5318C23.5855 9.47443 22.3866 6.59945 20.2084 4.43647C18.0306 2.27368 15.1342 1.08196 12.0481 1.08057C5.68972 1.08057 0.514809 6.21359 0.512184 12.5228" fill="url(#paint0_linear_2_2308)"/>
<path d="M0.100313 12.5192C0.0996563 14.6082 0.649687 16.6475 1.69537 18.4451L0 24.5872L6.33478 22.9391C8.08022 23.8833 10.0454 24.3812 12.0451 24.3819H12.0502C18.636 24.3819 23.9972 19.064 24 12.5286C24.0011 9.36139 22.7591 6.38306 20.5031 4.1426C18.2468 1.90241 15.2468 0.667806 12.0502 0.666504C5.46337 0.666504 0.102938 5.98371 0.100313 12.5192ZM3.87291 18.1355L3.63637 17.763C2.64206 16.1942 2.11725 14.3814 2.118 12.5199C2.12006 7.08781 6.57544 2.66836 12.054 2.66836C14.7071 2.66948 17.2005 3.69571 19.0759 5.55767C20.9512 7.41981 21.9831 9.89516 21.9824 12.5279C21.98 17.96 17.5245 22.38 12.0502 22.38H12.0463C10.2638 22.3791 8.51569 21.9041 6.99113 21.0065L6.62831 20.793L2.86912 21.771L3.87291 18.1355Z" fill="url(#paint1_linear_2_2308)"/>
<path d="M9.06334 7.56397C8.83965 7.07066 8.60425 7.06071 8.39153 7.05206C8.21734 7.04462 8.01821 7.04518 7.81928 7.04518C7.62015 7.04518 7.29662 7.1195 7.02315 7.41578C6.7494 7.71234 5.97803 8.42899 5.97803 9.88657C5.97803 11.3442 7.048 12.7529 7.19715 12.9508C7.3465 13.1482 9.26275 16.2351 12.2976 17.4227C14.8199 18.4095 15.3332 18.2133 15.8806 18.1638C16.4281 18.1145 17.6472 17.4473 17.8959 16.7555C18.1448 16.0638 18.1448 15.4708 18.0702 15.3469C17.9956 15.2235 17.7964 15.1494 17.4978 15.0013C17.1992 14.8532 15.7312 14.1363 15.4576 14.0375C15.1838 13.9387 14.9848 13.8894 14.7857 14.186C14.5865 14.4822 14.0147 15.1494 13.8405 15.3469C13.6664 15.545 13.4921 15.5696 13.1936 15.4215C12.8948 15.2728 11.9332 14.9603 10.7924 13.9511C9.90475 13.1658 9.3055 12.1961 9.13131 11.8994C8.95712 11.6032 9.11265 11.4427 9.26237 11.295C9.39653 11.1623 9.56106 10.9491 9.7105 10.7762C9.85937 10.6031 9.90906 10.4797 10.0086 10.2821C10.1083 10.0843 10.0584 9.91132 9.98387 9.76313C9.90906 9.61494 9.32884 8.14973 9.06334 7.56397Z" fill="white"/>
</g>
<defs>
<linearGradient id="paint0_linear_2_2308" x1="1158.85" y1="2310.34" x2="1158.85" y2="1.08057" gradientUnits="userSpaceOnUse">
<stop stop-color="#1FAF38"/>
<stop offset="1" stop-color="#60D669"/>
</linearGradient>
<linearGradient id="paint1_linear_2_2308" x1="1200" y1="2392.73" x2="1200" y2="0.666504" gradientUnits="userSpaceOnUse">
<stop stop-color="#F9F9F9"/>
<stop offset="1" stop-color="white"/>
</linearGradient>
<clipPath id="clip0_2_2308">
<rect width="24" height="24" fill="white" transform="translate(0 0.666504)"/>
</clipPath>
</defs>
</svg>
